<?xml version="1.0" encoding="UTF-8" standalone="no"?>
<svg
   xmlns:dc="http://purl.org/dc/elements/1.1/"
   xmlns:cc="http://creativecommons.org/ns#"
   xmlns:rdf="http://www.w3.org/1999/02/22-rdf-syntax-ns#"
   xmlns:svg="http://www.w3.org/2000/svg"
   xmlns="http://www.w3.org/2000/svg"
   xmlns:sodipodi="http://sodipodi.sourceforge.net/DTD/sodipodi-0.dtd"
   xmlns:inkscape="http://www.inkscape.org/namespaces/inkscape"
   version="1.1"
   id="svg10"
   xml:space="preserve"
   width="480"
   height="384"
   viewBox="0 0 480 384"
   sodipodi:docname="Fig2.svg"
   inkscape:version="1.0 (4035a4f, 2020-05-01)"><metadata
     id="metadata16"><rdf:RDF><cc:Work
         rdf:about=""><dc:format>image/svg+xml</dc:format><dc:type
           rdf:resource="http://purl.org/dc/dcmitype/StillImage" /><dc:title></dc:title></cc:Work></rdf:RDF></metadata><defs
     id="defs14"><clipPath
       clipPathUnits="userSpaceOnUse"
       id="clipPath34"><path
         d="M 41.23,5.48 H 354.519 V 256.089 H 41.23 Z"
         id="path32" /></clipPath><clipPath
       clipPathUnits="userSpaceOnUse"
       id="clipPath42"><path
         d="M 0,0 H 360 V 288 H 0 Z"
         id="path40" /></clipPath></defs><sodipodi:namedview
     inkscape:document-rotation="0"
     pagecolor="#ffffff"
     bordercolor="#666666"
     borderopacity="1"
     objecttolerance="10"
     gridtolerance="10"
     guidetolerance="10"
     inkscape:pageopacity="0"
     inkscape:pageshadow="2"
     inkscape:window-width="1379"
     inkscape:window-height="856"
     id="namedview12"
     showgrid="false"
     inkscape:zoom="2.19375"
     inkscape:cx="243.64672"
     inkscape:cy="130.91738"
     inkscape:window-x="0"
     inkscape:window-y="23"
     inkscape:window-maximized="0"
     inkscape:current-layer="g126" /><g
     id="g18"
     inkscape:groupmode="layer"
     inkscape:label="Figure_2a"
     transform="matrix(1.3333333,0,0,1.3333333,0,9.6e-6)"><g
       id="g20"><path
         d="M 0,0 H 360 V 288 H 0 Z"
         style="fill:#ffffff;fill-opacity:1;fill-rule:nonzero;stroke:none"
         id="path22" /><g
         id="g24"
         transform="scale(1,-1)"><path
           d="M 0,0 H 360 V -288 H 0 Z"
           style="fill:none;stroke:#ffffff;stroke-width:1.07;stroke-linecap:round;stroke-linejoin:round;stroke-miterlimit:10;stroke-dasharray:none;stroke-opacity:1"
           id="path26" /></g></g><g
       id="g28"><g
         id="g30"
         clip-path="url(#clipPath34)"><g
           id="g36"><g
             id="g38" /><g
             id="g124"><g
               clip-path="url(#clipPath42)"
               id="g122"><g
                 id="g120"><path
                   d="M 41.23,5.48 H 354.519 V 256.089 H 41.23 Z"
                   style="fill:#ffffff;fill-opacity:1;fill-rule:nonzero;stroke:none"
                   id="path44" /><g
                   transform="scale(1,-1)"
                   id="g48"><path
                     d="M 41.23,-228.891 H 354.52"
                     style="fill:none;stroke:#ebebeb;stroke-width:0.53;stroke-linecap:butt;stroke-linejoin:round;stroke-miterlimit:10;stroke-dasharray:none;stroke-opacity:1"
                     id="path46" /></g><g
                   transform="scale(1,-1)"
                   id="g52"><path
                     d="M 41.23,-167.48 H 354.52"
                     style="fill:none;stroke:#ebebeb;stroke-width:0.53;stroke-linecap:butt;stroke-linejoin:round;stroke-miterlimit:10;stroke-dasharray:none;stroke-opacity:1"
                     id="path50" /></g><g
                   transform="scale(1,-1)"
                   id="g56"><path
                     d="M 41.23,-106.059 H 354.52"
                     style="fill:none;stroke:#ebebeb;stroke-width:0.53;stroke-linecap:butt;stroke-linejoin:round;stroke-miterlimit:10;stroke-dasharray:none;stroke-opacity:1"
                     id="path54" /></g><g
                   transform="scale(1,-1)"
                   id="g60"><path
                     d="M 41.23,-44.648 H 354.52"
                     style="fill:none;stroke:#ebebeb;stroke-width:0.53;stroke-linecap:butt;stroke-linejoin:round;stroke-miterlimit:10;stroke-dasharray:none;stroke-opacity:1"
                     id="path58" /></g><g
                   transform="scale(1,-1)"
                   id="g64"><path
                     d="M 87.121,-256.09 V -5.48"
                     style="fill:none;stroke:#ebebeb;stroke-width:0.53;stroke-linecap:butt;stroke-linejoin:round;stroke-miterlimit:10;stroke-dasharray:none;stroke-opacity:1"
                     id="path62" /></g><g
                   transform="scale(1,-1)"
                   id="g68"><path
                     d="M 166.23,-256.09 V -5.48"
                     style="fill:none;stroke:#ebebeb;stroke-width:0.53;stroke-linecap:butt;stroke-linejoin:round;stroke-miterlimit:10;stroke-dasharray:none;stroke-opacity:1"
                     id="path66" /></g><g
                   transform="scale(1,-1)"
                   id="g72"><path
                     d="M 245.352,-256.09 V -5.48"
                     style="fill:none;stroke:#ebebeb;stroke-width:0.53;stroke-linecap:butt;stroke-linejoin:round;stroke-miterlimit:10;stroke-dasharray:none;stroke-opacity:1"
                     id="path70" /></g><g
                   transform="scale(1,-1)"
                   id="g76"><path
                     d="M 324.461,-256.09 V -5.48"
                     style="fill:none;stroke:#ebebeb;stroke-width:0.53;stroke-linecap:butt;stroke-linejoin:round;stroke-miterlimit:10;stroke-dasharray:none;stroke-opacity:1"
                     id="path74" /></g><g
                   transform="scale(1,-1)"
                   id="g80"><path
                     d="M 41.23,-198.18 H 354.52"
                     style="fill:none;stroke:#ebebeb;stroke-width:1.07;stroke-linecap:butt;stroke-linejoin:round;stroke-miterlimit:10;stroke-dasharray:none;stroke-opacity:1"
                     id="path78" /></g><g
                   transform="scale(1,-1)"
                   id="g84"><path
                     d="M 41.23,-136.77 H 354.52"
                     style="fill:none;stroke:#ebebeb;stroke-width:1.07;stroke-linecap:butt;stroke-linejoin:round;stroke-miterlimit:10;stroke-dasharray:none;stroke-opacity:1"
                     id="path82" /></g><g
                   transform="scale(1,-1)"
                   id="g88"><path
                     d="M 41.23,-75.359 H 354.52"
                     style="fill:none;stroke:#ebebeb;stroke-width:1.07;stroke-linecap:butt;stroke-linejoin:round;stroke-miterlimit:10;stroke-dasharray:none;stroke-opacity:1"
                     id="path86" /></g><g
                   transform="scale(1,-1)"
                   id="g92"><path
                     d="M 41.23,-13.941 H 354.52"
                     style="fill:none;stroke:#ebebeb;stroke-width:1.07;stroke-linecap:butt;stroke-linejoin:round;stroke-miterlimit:10;stroke-dasharray:none;stroke-opacity:1"
                     id="path90" /></g><g
                   transform="scale(1,-1)"
                   id="g96"><path
                     d="M 47.559,-256.09 V -5.48"
                     style="fill:none;stroke:#ebebeb;stroke-width:1.07;stroke-linecap:butt;stroke-linejoin:round;stroke-miterlimit:10;stroke-dasharray:none;stroke-opacity:1"
                     id="path94" /></g><g
                   transform="scale(1,-1)"
                   id="g100"><path
                     d="M 126.68,-256.09 V -5.48"
                     style="fill:none;stroke:#ebebeb;stroke-width:1.07;stroke-linecap:butt;stroke-linejoin:round;stroke-miterlimit:10;stroke-dasharray:none;stroke-opacity:1"
                     id="path98" /></g><g
                   transform="scale(1,-1)"
                   id="g104"><path
                     d="M 205.789,-256.09 V -5.48"
                     style="fill:none;stroke:#ebebeb;stroke-width:1.07;stroke-linecap:butt;stroke-linejoin:round;stroke-miterlimit:10;stroke-dasharray:none;stroke-opacity:1"
                     id="path102" /></g><g
                   transform="scale(1,-1)"
                   id="g108"><path
                     d="M 284.898,-256.09 V -5.48"
                     style="fill:none;stroke:#ebebeb;stroke-width:1.07;stroke-linecap:butt;stroke-linejoin:round;stroke-miterlimit:10;stroke-dasharray:none;stroke-opacity:1"
                     id="path106" /></g><path
                   d="m 55.469,100.059 7.922,1.562 7.91,-72.93 7.91,8.09 7.91,67.18 7.91,-9.32 7.91,-15.012 7.911,35 7.918,30.66 7.91,-6.82 7.91,-1.008 7.91,-66.09 7.91,-11.41 7.91,40.699 7.91,2.692 7.911,1.347 7.918,17 7.91,-104.828 7.91,129.59 7.91,-6.789 7.91,5.098 7.91,4.39 7.911,-11.5 7.91,-12.09 7.922,-16.492 7.91,30.934 7.91,6.058 7.906,6.442 7.91,-9.59 7.91,-9.852 7.911,13.5 7.91,3.782 7.922,-1.43 7.91,-12.793 7.91,-96.91 7.91,5.211 7.91,85.66 v 31.531 l -7.91,-37.57 -7.91,-1.301 -7.91,42.762 -7.91,56.769 -7.922,7.129 -7.91,-19.461 -7.911,-48.328 -7.91,25.82 -7.91,57.258 -7.906,-37.847 -7.91,-31.043 -7.91,-38.848 -7.922,13.187 -7.91,15.801 -7.911,59.141 -7.91,-27.852 -7.91,-18.367 -7.91,27.899 -7.91,-87.848 -7.91,27.656 -7.918,-8.476 -7.911,-2.633 -7.91,-1.707 -7.91,-7.742 -7.91,1.808 -7.91,41.352 -7.91,0.422 -7.91,36.308 -7.918,-64.711 -7.911,-11.39 -7.91,3.66 -7.91,1.812 -7.91,-12.75 -7.91,-1.23 -7.91,13.308 -7.922,-0.57 z"
                   style="fill:#36013f;fill-opacity:0.4;fill-rule:nonzero;stroke:none"
                   id="path110" /><g
                   transform="scale(1,-1)"
                   id="g114"><path
                     d="m 55.469,-121.68 7.922,-0.879 7.91,35.118 7.91,-3.387 7.91,-33.281 7.91,4.16 7.91,8.07 7.911,-18.57 7.918,-37.11 7.91,17.918 7.91,1.18 7.91,41.402 7.91,5.45 7.91,-20.411 7.91,-1.91 7.911,-1.75 7.918,-9.289 7.91,54.379 7.91,-88.058 7.91,15 7.91,-10.461 7.91,-12.442 7.911,28.52 7.91,10.332 7.922,10.808 7.91,-25.898 7.91,-15.84 7.906,-18.281 7.91,27.898 7.91,14.84 7.911,-25.25 7.91,-10.406 7.922,3.519 7.91,29.329 7.91,55.031 7.91,-3.379 7.91,-48.082"
                     style="fill:none;stroke:#36013f;stroke-width:1.07;stroke-linecap:butt;stroke-linejoin:round;stroke-miterlimit:10;stroke-dasharray:none;stroke-opacity:1"
                     id="path112" /></g><g
                   transform="scale(1,-1)"
                   id="g118"><path
                     d="M 41.23,-5.48 H 354.519 V -256.089 H 41.23 Z"
                     style="fill:none;stroke:#333333;stroke-width:1.07;stroke-linecap:round;stroke-linejoin:round;stroke-miterlimit:10;stroke-dasharray:none;stroke-opacity:1"
                     id="path116" /></g></g></g></g></g></g></g><g
       id="g126"><g
         id="g128"
         transform="scale(1,-1)"><path
           d="m 47.559,-258.828 v 2.738"
           style="fill:none;stroke:#333333;stroke-width:1.07;stroke-linecap:butt;stroke-linejoin:round;stroke-miterlimit:10;stroke-dasharray:none;stroke-opacity:1"
           id="path130" /></g><g
         id="g132"
         transform="scale(1,-1)"><path
           d="m 126.68,-258.828 v 2.738"
           style="fill:none;stroke:#333333;stroke-width:1.07;stroke-linecap:butt;stroke-linejoin:round;stroke-miterlimit:10;stroke-dasharray:none;stroke-opacity:1"
           id="path134" /></g><g
         id="g136"
         transform="scale(1,-1)"><path
           d="m 205.789,-258.828 v 2.738"
           style="fill:none;stroke:#333333;stroke-width:1.07;stroke-linecap:butt;stroke-linejoin:round;stroke-miterlimit:10;stroke-dasharray:none;stroke-opacity:1"
           id="path138" /></g><g
         id="g140"
         transform="scale(1,-1)"><path
           d="m 284.898,-258.828 v 2.738"
           style="fill:none;stroke:#333333;stroke-width:1.07;stroke-linecap:butt;stroke-linejoin:round;stroke-miterlimit:10;stroke-dasharray:none;stroke-opacity:1"
           id="path142" /></g><text
         transform="translate(37.559999,267.48)"
         style="font-variant:normal;font-weight:normal;font-size:9px;font-family:Helvetica;-inkscape-font-specification:Helvetica;writing-mode:lr-tb;fill:#4d4d4d;fill-opacity:1;fill-rule:nonzero;stroke:none"
         id="text146"><tspan
           x="0 5.0040002 10.008 15.012 79.100998 84.105003 89.109001 94.112999 158.22 163.224 168.228 173.23199 237.321 242.325 247.32899 252.33299"
           y="0"
           sodipodi:role="line"
           id="tspan144">1980199020002010</tspan></text><text
         transform="translate(18.540002,201.41)"
         style="font-variant:normal;font-weight:normal;font-size:9px;font-family:Helvetica;-inkscape-font-specification:Helvetica;writing-mode:lr-tb;fill:#4d4d4d;fill-opacity:1;fill-rule:nonzero;stroke:none"
         id="text150"><tspan
           x="0"
           y="0"
           id="tspan148">−</tspan></text><text
         transform="translate(23.787002,201.41)"
         style="font-variant:normal;font-weight:normal;font-size:9px;font-family:Helvetica;-inkscape-font-specification:Helvetica;writing-mode:lr-tb;fill:#4d4d4d;fill-opacity:1;fill-rule:nonzero;stroke:none"
         id="text160"><tspan
           x="0 5.0040002 7.4970002"
           y="0"
           sodipodi:role="line"
           id="tspan152">2.5</tspan><tspan
           x="0.002997 5.0069971 7.4999971"
           y="-61.409996"
           sodipodi:role="line"
           id="tspan154">0.0</tspan><tspan
           x="0.002997 5.0069971 7.4999971"
           y="-122.81999"
           sodipodi:role="line"
           id="tspan156">2.5</tspan><tspan
           x="0.002997 5.0069971 7.4999971"
           y="-184.23999"
           sodipodi:role="line"
           id="tspan158">5.0</tspan></text><g
         id="g162"
         transform="scale(1,-1)"><path
           d="M 38.488,-198.18 H 41.23"
           style="fill:none;stroke:#333333;stroke-width:1.07;stroke-linecap:butt;stroke-linejoin:round;stroke-miterlimit:10;stroke-dasharray:none;stroke-opacity:1"
           id="path164" /></g><g
         id="g166"
         transform="scale(1,-1)"><path
           d="M 38.488,-136.77 H 41.23"
           style="fill:none;stroke:#333333;stroke-width:1.07;stroke-linecap:butt;stroke-linejoin:round;stroke-miterlimit:10;stroke-dasharray:none;stroke-opacity:1"
           id="path168" /></g><g
         id="g170"
         transform="scale(1,-1)"><path
           d="M 38.488,-75.359 H 41.23"
           style="fill:none;stroke:#333333;stroke-width:1.07;stroke-linecap:butt;stroke-linejoin:round;stroke-miterlimit:10;stroke-dasharray:none;stroke-opacity:1"
           id="path172" /></g><g
         id="g174"
         transform="scale(1,-1)"><path
           d="M 38.488,-13.941 H 41.23"
           style="fill:none;stroke:#333333;stroke-width:1.07;stroke-linecap:butt;stroke-linejoin:round;stroke-miterlimit:10;stroke-dasharray:none;stroke-opacity:1"
           id="path176" /></g><text
         transform="translate(185.65999,280.1)"
         style="font-variant:normal;font-weight:normal;font-size:11px;font-family:Helvetica;-inkscape-font-specification:Helvetica;writing-mode:lr-tb;fill:#000000;fill-opacity:1;fill-rule:nonzero;stroke:none"
         id="text180"><tspan
           x="0 6.71 9.1520004 18.315001"
           y="0"
           sodipodi:role="line"
           id="tspan178">Time</tspan></text><text
         transform="rotate(-90,86.205001,72.825001)"
         style="font-variant:normal;font-weight:normal;font-size:11px;font-family:Helvetica;-inkscape-font-specification:Helvetica;writing-mode:lr-tb;fill:#000000;fill-opacity:1;fill-rule:nonzero;stroke:none"
         id="text184"><tspan
           x="0 5.3899999 9.0530005 15.169 21.285 27.400999 30.448 35.673 41.789001 44.230999 50.347"
           y="0"
           sodipodi:role="line"
           id="tspan182">Trend value</tspan></text></g></g></svg>
