<?xml version="1.0" encoding="UTF-8" standalone="no"?>
<svg
   xmlns:dc="http://purl.org/dc/elements/1.1/"
   xmlns:cc="http://creativecommons.org/ns#"
   xmlns:rdf="http://www.w3.org/1999/02/22-rdf-syntax-ns#"
   xmlns:svg="http://www.w3.org/2000/svg"
   xmlns="http://www.w3.org/2000/svg"
   xmlns:sodipodi="http://sodipodi.sourceforge.net/DTD/sodipodi-0.dtd"
   xmlns:inkscape="http://www.inkscape.org/namespaces/inkscape"
   inkscape:version="1.0 (4035a4f, 2020-05-01)"
   sodipodi:docname="Fig3.svg"
   viewBox="0 0 480 672"
   height="672"
   width="480"
   xml:space="preserve"
   id="svg10"
   version="1.1"><metadata
     id="metadata16"><rdf:RDF><cc:Work
         rdf:about=""><dc:format>image/svg+xml</dc:format><dc:type
           rdf:resource="http://purl.org/dc/dcmitype/StillImage" /><dc:title></dc:title></cc:Work></rdf:RDF></metadata><defs
     id="defs14"><clipPath
       id="clipPath34"
       clipPathUnits="userSpaceOnUse"><path
         id="path32"
         d="M 79.391,5.48 H 354.52 V 472.089 H 79.391 Z" /></clipPath><clipPath
       id="clipPath42"
       clipPathUnits="userSpaceOnUse"><path
         id="path40"
         d="M 0,0 H 360 V 504 H 0 Z" /></clipPath></defs><sodipodi:namedview
     inkscape:current-layer="g18"
     inkscape:window-maximized="0"
     inkscape:window-y="23"
     inkscape:window-x="0"
     inkscape:cy="104.82562"
     inkscape:cx="240"
     inkscape:zoom="1.2544643"
     showgrid="false"
     id="namedview12"
     inkscape:window-height="823"
     inkscape:window-width="1211"
     inkscape:pageshadow="2"
     inkscape:pageopacity="0"
     guidetolerance="10"
     gridtolerance="10"
     objecttolerance="10"
     borderopacity="1"
     bordercolor="#666666"
     pagecolor="#ffffff"
     inkscape:document-rotation="0" /><g
     transform="matrix(1.3333333,0,0,1.3333333,0,1.68e-5)"
     inkscape:label="Figure_2b"
     inkscape:groupmode="layer"
     id="g18"><g
       id="g20"><path
         id="path22"
         style="fill:#ffffff;fill-opacity:1;fill-rule:nonzero;stroke:none"
         d="M 0,0 H 360 V 504 H 0 Z" /><g
         transform="scale(1,-1)"
         id="g24"><path
           id="path26"
           style="fill:none;stroke:#ffffff;stroke-width:1.07;stroke-linecap:round;stroke-linejoin:round;stroke-miterlimit:10;stroke-dasharray:none;stroke-opacity:1"
           d="M 0,0 H 360 V -504 H 0 Z" /></g></g><g
       id="g28"><g
         clip-path="url(#clipPath34)"
         id="g30"><g
           id="g36"><g
             id="g38" /><g
             id="g160"><g
               id="g158"
               clip-path="url(#clipPath42)"><g
                 id="g156"><path
                   id="path44"
                   style="fill:#ffffff;fill-opacity:1;fill-rule:nonzero;stroke:none"
                   d="M 79.391,5.48 H 354.52 V 472.089 H 79.391 Z" /><g
                   id="g48"
                   transform="scale(1,-1)"><path
                     id="path46"
                     style="fill:none;stroke:#ebebeb;stroke-width:0.53;stroke-linecap:butt;stroke-linejoin:round;stroke-miterlimit:10;stroke-dasharray:none;stroke-opacity:1"
                     d="M 123.16,-472.09 V -5.48" /></g><g
                   id="g52"
                   transform="scale(1,-1)"><path
                     id="path50"
                     style="fill:none;stroke:#ebebeb;stroke-width:0.53;stroke-linecap:butt;stroke-linejoin:round;stroke-miterlimit:10;stroke-dasharray:none;stroke-opacity:1"
                     d="M 185.691,-472.09 V -5.48" /></g><g
                   id="g56"
                   transform="scale(1,-1)"><path
                     id="path54"
                     style="fill:none;stroke:#ebebeb;stroke-width:0.53;stroke-linecap:butt;stroke-linejoin:round;stroke-miterlimit:10;stroke-dasharray:none;stroke-opacity:1"
                     d="M 248.219,-472.09 V -5.48" /></g><g
                   id="g60"
                   transform="scale(1,-1)"><path
                     id="path58"
                     style="fill:none;stroke:#ebebeb;stroke-width:0.53;stroke-linecap:butt;stroke-linejoin:round;stroke-miterlimit:10;stroke-dasharray:none;stroke-opacity:1"
                     d="M 310.75,-472.09 V -5.48" /></g><g
                   id="g64"
                   transform="scale(1,-1)"><path
                     id="path62"
                     style="fill:none;stroke:#ebebeb;stroke-width:1.07;stroke-linecap:butt;stroke-linejoin:round;stroke-miterlimit:10;stroke-dasharray:none;stroke-opacity:1"
                     d="M 79.391,-447.09 H 354.52" /></g><g
                   id="g68"
                   transform="scale(1,-1)"><path
                     id="path66"
                     style="fill:none;stroke:#ebebeb;stroke-width:1.07;stroke-linecap:butt;stroke-linejoin:round;stroke-miterlimit:10;stroke-dasharray:none;stroke-opacity:1"
                     d="M 79.391,-405.43 H 354.52" /></g><g
                   id="g72"
                   transform="scale(1,-1)"><path
                     id="path70"
                     style="fill:none;stroke:#ebebeb;stroke-width:1.07;stroke-linecap:butt;stroke-linejoin:round;stroke-miterlimit:10;stroke-dasharray:none;stroke-opacity:1"
                     d="M 79.391,-363.77 H 354.52" /></g><g
                   id="g76"
                   transform="scale(1,-1)"><path
                     id="path74"
                     style="fill:none;stroke:#ebebeb;stroke-width:1.07;stroke-linecap:butt;stroke-linejoin:round;stroke-miterlimit:10;stroke-dasharray:none;stroke-opacity:1"
                     d="M 79.391,-322.109 H 354.52" /></g><g
                   id="g80"
                   transform="scale(1,-1)"><path
                     id="path78"
                     style="fill:none;stroke:#ebebeb;stroke-width:1.07;stroke-linecap:butt;stroke-linejoin:round;stroke-miterlimit:10;stroke-dasharray:none;stroke-opacity:1"
                     d="M 79.391,-280.449 H 354.52" /></g><g
                   id="g84"
                   transform="scale(1,-1)"><path
                     id="path82"
                     style="fill:none;stroke:#ebebeb;stroke-width:1.07;stroke-linecap:butt;stroke-linejoin:round;stroke-miterlimit:10;stroke-dasharray:none;stroke-opacity:1"
                     d="M 79.391,-238.781 H 354.52" /></g><g
                   id="g88"
                   transform="scale(1,-1)"><path
                     id="path86"
                     style="fill:none;stroke:#ebebeb;stroke-width:1.07;stroke-linecap:butt;stroke-linejoin:round;stroke-miterlimit:10;stroke-dasharray:none;stroke-opacity:1"
                     d="M 79.391,-197.121 H 354.52" /></g><g
                   id="g92"
                   transform="scale(1,-1)"><path
                     id="path90"
                     style="fill:none;stroke:#ebebeb;stroke-width:1.07;stroke-linecap:butt;stroke-linejoin:round;stroke-miterlimit:10;stroke-dasharray:none;stroke-opacity:1"
                     d="M 79.391,-155.461 H 354.52" /></g><g
                   id="g96"
                   transform="scale(1,-1)"><path
                     id="path94"
                     style="fill:none;stroke:#ebebeb;stroke-width:1.07;stroke-linecap:butt;stroke-linejoin:round;stroke-miterlimit:10;stroke-dasharray:none;stroke-opacity:1"
                     d="M 79.391,-113.801 H 354.52" /></g><g
                   id="g100"
                   transform="scale(1,-1)"><path
                     id="path98"
                     style="fill:none;stroke:#ebebeb;stroke-width:1.07;stroke-linecap:butt;stroke-linejoin:round;stroke-miterlimit:10;stroke-dasharray:none;stroke-opacity:1"
                     d="M 79.391,-72.141 H 354.52" /></g><g
                   id="g104"
                   transform="scale(1,-1)"><path
                     id="path102"
                     style="fill:none;stroke:#ebebeb;stroke-width:1.07;stroke-linecap:butt;stroke-linejoin:round;stroke-miterlimit:10;stroke-dasharray:none;stroke-opacity:1"
                     d="M 79.391,-30.48 H 354.52" /></g><g
                   id="g108"
                   transform="scale(1,-1)"><path
                     id="path106"
                     style="fill:none;stroke:#ebebeb;stroke-width:1.07;stroke-linecap:butt;stroke-linejoin:round;stroke-miterlimit:10;stroke-dasharray:none;stroke-opacity:1"
                     d="M 91.898,-472.09 V -5.48" /></g><g
                   id="g112"
                   transform="scale(1,-1)"><path
                     id="path110"
                     style="fill:none;stroke:#ebebeb;stroke-width:1.07;stroke-linecap:butt;stroke-linejoin:round;stroke-miterlimit:10;stroke-dasharray:none;stroke-opacity:1"
                     d="M 154.43,-472.09 V -5.48" /></g><g
                   id="g116"
                   transform="scale(1,-1)"><path
                     id="path114"
                     style="fill:none;stroke:#ebebeb;stroke-width:1.07;stroke-linecap:butt;stroke-linejoin:round;stroke-miterlimit:10;stroke-dasharray:none;stroke-opacity:1"
                     d="M 216.961,-472.09 V -5.48" /></g><g
                   id="g120"
                   transform="scale(1,-1)"><path
                     id="path118"
                     style="fill:none;stroke:#ebebeb;stroke-width:1.07;stroke-linecap:butt;stroke-linejoin:round;stroke-miterlimit:10;stroke-dasharray:none;stroke-opacity:1"
                     d="M 279.488,-472.09 V -5.48" /></g><g
                   id="g124"
                   transform="scale(1,-1)"><path
                     id="path122"
                     style="fill:none;stroke:#ebebeb;stroke-width:1.07;stroke-linecap:butt;stroke-linejoin:round;stroke-miterlimit:10;stroke-dasharray:none;stroke-opacity:1"
                     d="M 342.012,-472.09 V -5.48" /></g><path
                   id="path126"
                   style="fill:#440154;fill-opacity:0.102;fill-rule:nonzero;stroke:none"
                   d="m 0,447.102 h 0.641 l 0.55,0.007 h 0.547 l 0.551,0.012 H 2.84 l 0.558,0.008 h 0.551 l 0.551,0.012 h 1.109 l 0.551,-0.012 h 0.551 l 0.551,-0.008 0.558,-0.012 h 0.551 l 0.551,-0.007 h 1.109 l 0.547,-0.012 H 31.57 l 0.551,0.012 h 1.098 l 0.562,0.007 h 0.547 l 0.551,0.012 h 0.551 l 0.558,0.008 h 1.102 l 0.551,-0.008 h 0.55 l 0.559,-0.012 h 0.551 l 0.551,-0.007 h 1.109 l 0.551,-0.012 h 8.84 l 0.546,0.012 h 1.661 l 0.55,0.007 h 4.969 l 0.551,0.012 h 1.109 l 0.551,0.008 h 1.66 l 0.551,-0.008 h 8.281 l 0.547,0.008 h 3.32 l 0.551,-0.008 h 1.11 l 0.55,-0.012 h 1.102 l 0.559,-0.007 h 4.41 l 0.558,0.007 h 0.551 l 0.551,0.012 0.551,0.008 0.558,0.012 h 2.211 l 0.551,-0.012 h 1.098 l 0.55,-0.008 h 1.11 l 0.551,-0.012 h 1.66 l 0.55,-0.007 h 0.551 l 0.559,0.007 h 1.648 l 0.551,0.012 h 0.563 l 0.546,0.008 H 99.5 l 0.559,0.012 h 0.55 l 0.551,0.007 h 2.211 l 0.551,0.012 h 0.558 l 0.551,0.012 h 0.547 l 0.551,0.008 0.551,0.011 h 0.558 l 0.551,0.008 h 0.551 l 0.551,0.012 H 110 l 0.551,0.008 h 0.551 l 0.558,0.011 h 1.102 l 0.547,0.008 h 1.113 l 0.547,-0.008 h 1.101 l 0.559,-0.011 h 1.101 l 0.551,0.011 h 0.559 l 0.551,0.008 0.55,0.012 0.547,0.012 0.563,0.008 h 0.551 l 0.546,0.011 h 0.551 l 0.551,0.008 h 0.559 l 0.55,0.012 0.551,0.008 0.551,0.011 0.559,0.02 0.55,0.012 0.551,0.019 0.551,0.008 0.558,0.012 h 6.071 l 0.551,-0.012 h 1.109 l 0.551,0.012 0.547,0.007 0.562,0.012 0.551,0.012 0.547,0.008 h 0.551 l 0.55,0.011 h 1.11 l 0.55,0.008 0.551,0.012 0.559,0.019 0.551,0.02 0.55,0.031 0.547,0.028 0.563,0.031 0.551,0.039 0.546,0.031 0.551,0.039 0.563,0.031 0.547,0.032 0.55,0.019 0.551,0.028 0.551,0.031 0.559,0.031 0.55,0.027 0.551,0.024 0.551,0.027 0.558,0.039 0.551,0.032 0.547,0.039 0.551,0.043 0.562,0.027 0.547,0.043 0.551,0.027 0.551,0.012 0.558,0.019 h 1.102 l 0.551,0.008 h 1.109 l 0.551,0.012 0.551,0.02 0.547,0.031 0.562,0.039 0.551,0.058 0.547,0.071 0.551,0.082 0.558,0.07 0.551,0.078 0.551,0.082 0.55,0.078 0.551,0.09 0.559,0.11 0.551,0.113 0.55,0.129 0.547,0.121 0.563,0.117 0.551,0.109 0.546,0.102 0.551,0.102 0.563,0.097 0.547,0.11 0.55,0.132 0.551,0.118 0.559,0.132 0.551,0.129 0.55,0.121 0.551,0.098 0.551,0.109 0.558,0.102 0.551,0.109 0.547,0.121 0.551,0.141 0.562,0.168 0.547,0.191 0.551,0.2 0.551,0.23 0.558,0.231 1.102,0.5 0.551,0.257 0.558,0.262 0.551,0.27 0.551,0.261 0.551,0.27 0.547,0.277 0.562,0.293 0.551,0.321 0.547,0.359 0.551,0.398 0.558,0.43 0.551,0.461 0.551,0.469 0.55,0.461 0.559,0.449 0.551,0.449 0.551,0.453 0.55,0.438 0.547,0.453 0.563,0.449 0.551,0.438 0.546,0.429 0.551,0.41 0.563,0.391 0.547,0.391 0.55,0.379 0.551,0.382 0.559,0.379 0.551,0.379 0.55,0.352 0.551,0.32 0.559,0.289 0.55,0.25 0.551,0.219 0.547,0.18 0.551,0.152 0.562,0.098 0.547,0.031 0.551,-0.051 0.551,-0.141 0.558,-0.238 0.551,-0.34 0.551,-0.449 0.551,-0.531 0.558,-0.61 0.551,-0.66 0.551,-0.711 0.551,-0.75 0.558,-0.757 0.551,-0.782 0.551,-0.8 0.547,-0.821 0.551,-0.82 0.558,-0.828 0.551,-0.813 0.551,-0.789 0.55,-0.75 0.559,-0.687 0.551,-0.633 0.551,-0.59 0.55,-0.527 0.559,-0.5 0.551,-0.473 0.551,-0.449 0.546,-0.418 0.551,-0.402 0.563,-0.36 0.547,-0.308 0.55,-0.282 0.551,-0.23 0.559,-0.199 0.551,-0.161 0.55,-0.128 0.551,-0.114 0.559,-0.097 0.55,-0.09 0.551,-0.071 0.547,-0.07 0.563,-0.051 0.55,-0.039 0.547,-0.039 0.551,-0.019 0.551,-0.024 0.558,-0.019 1.102,-0.039 0.551,-0.008 0.558,-0.024 0.551,-0.007 h 0.551 l 0.551,-0.012 h 1.66 l 0.547,0.012 h 2.211 l 0.55,-0.012 h 0.559 l 0.551,-0.008 0.551,-0.012 h 0.55 l 0.559,-0.007 h 2.211 l 0.551,0.007 h 0.547 l 0.55,0.012 h 2.762 v -0.051 l -0.551,-0.011 h -1.101 l -0.559,0.011 h -1.101 l -0.547,0.008 h -3.321 l -0.55,-0.008 -0.551,-0.011 h -0.551 l -0.559,-0.008 h -0.55 l -0.551,-0.012 h -0.551 l -0.558,0.012 h -3.309 l -0.551,-0.012 -0.551,-0.008 -0.558,-0.011 -0.551,-0.02 -0.551,-0.012 -0.551,-0.019 -0.558,-0.02 -0.551,-0.019 -0.551,-0.032 -0.547,-0.027 -0.55,-0.051 -0.563,-0.05 -0.547,-0.059 -0.551,-0.082 -0.55,-0.078 -0.559,-0.102 -0.551,-0.121 -0.55,-0.129 -0.551,-0.16 -0.559,-0.187 -0.551,-0.243 -0.55,-0.269 -0.547,-0.32 -0.563,-0.36 -0.551,-0.39 -0.546,-0.43 -0.551,-0.449 -0.551,-0.469 -0.559,-0.5 -0.55,-0.531 -0.551,-0.582 -0.551,-0.637 -0.559,-0.692 -0.55,-0.742 -0.551,-0.789 -0.551,-0.82 -0.558,-0.82 -0.551,-0.829 -0.547,-0.808 -0.551,-0.801 -0.551,-0.781 -0.558,-0.77 -0.551,-0.742 -0.551,-0.707 -0.551,-0.672 -0.558,-0.609 -0.551,-0.531 -0.551,-0.438 -0.551,-0.351 -0.558,-0.239 -0.551,-0.14 -0.551,-0.051 -0.547,0.039 -0.562,0.101 -0.551,0.141 -0.547,0.188 -0.551,0.222 -0.55,0.25 -0.559,0.278 -0.551,0.332 -0.55,0.347 -0.551,0.371 -0.559,0.379 -0.551,0.383 -0.55,0.391 -0.547,0.379 -0.563,0.39 -0.551,0.41 -0.546,0.43 -0.551,0.438 -0.563,0.453 -0.547,0.449 -0.55,0.449 -0.551,0.442 -0.551,0.449 -0.559,0.461 -0.55,0.457 -0.551,0.472 -0.551,0.45 -0.558,0.437 -0.551,0.402 -0.547,0.36 -0.551,0.32 -0.562,0.289 -0.547,0.27 -0.551,0.269 -0.551,0.274 -0.551,0.258 -0.558,0.269 -0.551,0.25 -0.551,0.262 -0.551,0.238 -0.558,0.242 -0.551,0.219 -0.551,0.211 -0.547,0.187 -0.562,0.161 -0.551,0.152 -0.547,0.117 -0.551,0.113 -0.558,0.098 -0.551,0.102 -1.101,0.218 -0.551,0.129 -0.559,0.133 -0.551,0.129 -0.55,0.121 -0.547,0.109 -0.563,0.11 -0.551,0.101 -0.546,0.098 -0.551,0.109 -0.563,0.114 -0.547,0.129 -0.55,0.121 -0.551,0.117 -0.559,0.101 -0.551,0.098 -0.55,0.082 -0.551,0.07 -0.551,0.079 -0.558,0.082 -0.551,0.07 -0.547,0.07 -0.551,0.059 -0.562,0.051 -0.547,0.031 -0.551,0.019 -0.551,0.008 h -2.211 l -0.551,0.012 -0.558,0.008 -0.551,0.019 -0.551,0.032 -0.547,0.031 -0.562,0.039 -0.551,0.039 -0.547,0.031 -0.551,0.039 -0.558,0.031 -0.551,0.032 -0.551,0.027 -0.55,0.031 -0.559,0.02 -0.551,0.031 -0.551,0.027 -0.55,0.032 -0.547,0.031 -0.563,0.027 -0.551,0.032 -0.546,0.039 -0.551,0.031 -0.563,0.039 -0.547,0.031 -0.55,0.031 -0.551,0.02 -0.559,0.019 -0.551,0.008 h -0.55 l -0.551,0.012 h -1.109 l -0.551,0.012 h -0.547 l -0.551,0.008 -0.562,0.011 -0.547,0.008 -0.551,0.012 h -1.66 l -0.551,-0.012 h -1.66 l -0.551,0.012 h -1.66 l -0.551,-0.012 h -0.547 l -0.551,0.012 h -0.558 l -0.551,0.019 -0.551,0.008 -0.55,0.024 -0.559,0.007 -0.551,0.02 -0.551,0.012 h -0.55 l -0.559,0.007 h -1.102 l -0.546,0.012 -0.551,0.012 h -0.563 l -0.547,0.008 -0.55,0.011 -0.551,0.008 -0.559,0.012 h -0.551 l -0.55,0.008 -0.551,-0.008 h -0.559 l -0.55,-0.012 h -3.309 l -0.551,0.012 h -0.558 l -0.551,0.008 h -1.102 l -0.558,0.011 h -0.551 l -0.551,0.008 h -0.551 L 106.68,447 h -0.551 l -0.551,0.012 -0.547,0.008 h -0.551 l -0.558,0.011 h -1.652 l -0.559,0.008 h -1.102 l -0.55,0.012 h -1.11 l -0.551,0.008 h -0.546 l -0.563,0.011 h -1.098 l -0.55,0.008 H 92.879 L 92.32,447.07 h -1.648 l -0.563,-0.011 h -0.55 l -0.547,-0.008 H 87.91 l -0.558,-0.012 h -0.551 l -0.551,0.012 h -0.551 l -0.558,0.008 H 84.59 l -0.551,0.011 -0.551,0.008 H 82.93 l -0.551,0.012 H 79.621 L 79.07,447.078 H 77.961 L 77.41,447.07 h -1.66 l -0.551,-0.011 h -1.097 l -0.563,-0.008 h -1.098 l -0.55,0.008 h -1.11 l -0.551,0.011 h -2.21 l -0.551,-0.011 h -7.731 l -0.558,0.011 h -1.102 l -0.547,0.008 h -1.66 L 55.32,447.07 h -1.109 l -0.551,0.008 H 52 l -0.551,0.012 H 40.398 l -0.546,-0.012 H 39.301 L 38.75,447.07 h -0.559 l -0.55,-0.011 H 35.43 l -0.551,0.011 h -0.551 l -0.547,0.008 h -0.562 l -0.547,0.012 H 9.469 L 8.922,447.078 H 8.371 L 7.82,447.07 7.262,447.059 H 6.711 L 6.16,447.051 H 3.949 l -0.551,0.008 H 2.84 L 2.289,447.07 H 1.738 l -0.547,0.008 H 0.641 L 0.078,447.09 H 0 Z" /><path
                   id="path128"
                   style="fill:#440154;fill-opacity:0.906;fill-rule:nonzero;stroke:none"
                   d="m 0,405.43 h 0.391 l 0.621,0.011 h 2.457 l 0.609,0.008 h 1.231 l 0.621,-0.008 h 1.84 l 0.621,-0.011 h 4.3 l 0.618,0.011 h 1.839 l 0.622,0.008 h 3.691 l 0.609,0.012 h 3.692 l 0.617,-0.012 h 0.609 l 0.621,-0.008 h 4.922 l 0.61,0.008 h 1.23 l 0.617,-0.008 h 3.692 l 0.621,0.008 h 0.609 l 0.621,0.012 h 3.688 l 0.609,-0.012 h 3.082 l 0.61,-0.008 h 4.921 l 0.618,0.008 h 0.613 l 0.617,0.012 h 0.609 l 0.622,0.008 h 1.839 l 0.621,0.011 h 0.61 l 0.621,0.008 h 2.461 l 0.609,-0.008 0.617,-0.011 h 0.614 l 0.617,-0.008 h 8.609 l 0.614,-0.012 h 1.226 l 0.621,0.012 h 1.231 l 0.609,0.008 0.621,0.011 0.61,0.008 h 0.621 L 78.5,405.5 h 2.469 l 0.609,-0.012 0.621,0.012 h 1.231 l 0.609,0.012 h 0.621 l 0.61,0.008 h 0.621 l 0.609,0.011 h 1.852 l 0.609,-0.011 h 0.617 l 0.613,-0.008 0.618,-0.012 0.613,-0.012 0.617,-0.008 h 0.609 l 0.622,-0.011 h 0.609 l 0.621,0.011 0.609,0.008 0.621,0.012 0.61,0.012 0.621,0.008 0.609,0.011 0.621,0.008 h 3.688 l 0.609,0.012 0.621,0.008 0.61,0.011 h 0.621 l 0.609,0.008 h 0.621 l 0.61,0.012 h 1.23 l 0.621,0.012 0.61,0.007 h 0.621 l 0.609,0.012 0.617,0.008 h 0.614 l 0.617,0.012 h 0.609 l 0.621,0.007 h 0.61 l 0.621,0.012 0.609,0.012 h 0.621 l 0.61,0.019 0.621,0.008 0.609,0.02 0.621,0.019 0.609,0.024 0.622,0.019 0.609,0.008 0.617,0.012 0.613,0.008 0.618,0.011 0.613,0.008 0.617,0.012 h 1.84 l 0.621,-0.012 0.609,-0.008 h 0.621 l 0.61,-0.011 0.621,0.011 0.617,0.02 0.613,0.019 0.618,0.039 0.613,0.043 0.617,0.039 0.609,0.04 0.622,0.031 0.609,0.019 0.621,0.02 h 1.23 l 0.61,-0.02 0.621,-0.011 0.609,-0.02 0.621,-0.008 0.61,-0.011 h 0.621 l 0.609,0.011 0.617,0.02 0.614,0.027 0.617,0.043 0.609,0.039 0.621,0.039 0.61,0.031 0.621,0.032 0.609,0.019 0.621,0.02 0.61,0.019 0.621,0.02 0.609,0.031 0.621,0.027 0.61,0.032 0.621,0.05 0.609,0.04 0.617,0.05 0.614,0.039 0.617,0.039 0.609,0.043 0.621,0.039 0.61,0.04 0.621,0.039 0.609,0.05 0.621,0.063 0.61,0.058 0.621,0.071 0.609,0.07 0.621,0.07 0.609,0.071 0.622,0.066 0.609,0.063 0.617,0.058 0.613,0.063 0.618,0.066 0.613,0.07 0.617,0.082 0.609,0.098 0.622,0.113 0.609,0.118 0.621,0.14 0.609,0.16 0.621,0.172 0.61,0.188 0.621,0.211 0.609,0.211 0.621,0.199 0.61,0.199 0.621,0.172 0.609,0.148 0.617,0.141 0.614,0.129 0.617,0.141 0.609,0.152 0.621,0.187 0.61,0.2 0.621,0.23 0.621,0.242 0.609,0.25 0.621,0.239 0.61,0.261 0.621,0.278 0.609,0.312 0.617,0.348 0.614,0.383 0.617,0.41 0.609,0.418 0.621,0.41 0.61,0.398 0.621,0.383 0.609,0.348 0.621,0.32 0.61,0.289 0.621,0.274 0.609,0.238 0.621,0.219 0.61,0.222 0.621,0.199 0.609,0.2 0.617,0.218 0.614,0.25 0.617,0.293 0.609,0.329 0.621,0.371 0.61,0.398 0.621,0.422 0.609,0.41 0.621,0.391 0.61,0.359 0.621,0.32 0.609,0.27 0.621,0.211 0.609,0.148 0.622,0.071 h 0.609 l 0.617,-0.09 0.613,-0.172 0.618,-0.25 0.613,-0.309 0.617,-0.359 0.609,-0.391 0.622,-0.422 0.609,-0.429 0.621,-0.469 0.609,-0.52 0.621,-0.582 0.61,-0.648 0.621,-0.719 0.609,-0.793 0.621,-0.828 0.61,-0.879 0.621,-0.902 0.609,-0.899 0.617,-0.871 0.614,-0.839 0.617,-0.77 0.609,-0.711 0.621,-0.629 0.61,-0.558 0.621,-0.473 0.609,-0.399 0.621,-0.332 0.61,-0.269 0.621,-0.219 0.609,-0.18 0.621,-0.14 0.61,-0.11 0.621,-0.101 0.609,-0.078 0.617,-0.071 0.614,-0.058 0.617,-0.051 0.609,-0.043 0.621,-0.039 0.621,-0.019 0.61,-0.02 0.621,-0.02 0.609,-0.011 0.621,-0.008 h 0.61 v -0.063 h -0.61 l -0.621,-0.007 -0.609,-0.012 -0.621,-0.02 -0.61,-0.019 -0.621,-0.02 -0.621,-0.039 -0.609,-0.043 -0.617,-0.047 -0.614,-0.062 -0.617,-0.07 -0.609,-0.079 -0.621,-0.101 -0.61,-0.109 -0.621,-0.141 -0.609,-0.18 -0.621,-0.219 -0.61,-0.269 -0.621,-0.332 -0.609,-0.399 -0.621,-0.468 -0.61,-0.551 -0.621,-0.641 -0.609,-0.699 -0.617,-0.781 -0.614,-0.84 -0.617,-0.871 -0.609,-0.899 -0.621,-0.902 -0.61,-0.867 -0.621,-0.84 -0.609,-0.793 -0.621,-0.719 -0.61,-0.648 -0.621,-0.582 -0.609,-0.52 -0.621,-0.468 -0.609,-0.43 -0.622,-0.422 -0.609,-0.391 -0.617,-0.359 -0.613,-0.309 -0.618,-0.242 -0.613,-0.179 -0.617,-0.079 -0.609,-0.011 -0.622,0.082 -0.609,0.14 -0.621,0.219 -0.609,0.262 -0.621,0.316 -0.61,0.364 -0.621,0.386 -0.609,0.41 -0.621,0.422 -0.61,0.399 -0.621,0.371 -0.609,0.332 -0.617,0.289 -0.614,0.25 -0.617,0.219 -0.609,0.199 -0.621,0.211 -0.61,0.211 -0.621,0.219 -0.609,0.25 -0.621,0.261 -0.61,0.289 -0.621,0.321 -0.609,0.347 -0.621,0.383 -0.61,0.399 -0.621,0.421 -0.609,0.418 -0.617,0.403 -0.614,0.386 -0.617,0.34 -0.609,0.313 -0.621,0.277 -0.61,0.262 -0.621,0.25 -0.609,0.238 -0.621,0.242 -0.621,0.231 -0.61,0.211 -0.621,0.179 -0.609,0.149 -0.617,0.14 -0.614,0.129 -0.617,0.141 -0.609,0.148 -0.621,0.172 -0.61,0.2 -0.621,0.199 -0.609,0.211 -0.621,0.211 -0.61,0.187 -0.621,0.184 -0.609,0.148 -0.621,0.141 -0.609,0.129 -0.622,0.101 -0.609,0.098 -0.617,0.082 -0.613,0.07 -0.618,0.071 -0.613,0.058 -0.617,0.059 -0.609,0.062 -0.622,0.071 -0.609,0.07 -0.621,0.066 -0.609,0.071 -0.621,0.07 -0.61,0.062 -0.621,0.059 -0.609,0.051 -0.621,0.039 -0.61,0.051 -0.621,0.031 -0.609,0.039 -0.617,0.039 -0.614,0.051 -0.617,0.039 -0.609,0.051 -0.621,0.039 -0.61,0.039 -0.621,0.031 -0.609,0.02 -0.621,0.019 -0.61,0.02 -0.621,0.019 -0.609,0.024 -0.621,0.027 -0.61,0.031 -0.621,0.039 -0.609,0.039 -0.617,0.043 -0.614,0.028 -0.617,0.019 -0.609,0.024 h -0.621 l -0.61,-0.012 -0.621,-0.02 -0.609,-0.019 -0.621,-0.012 -0.61,-0.019 h -1.23 l -0.621,0.019 -0.609,0.02 -0.622,0.031 -0.609,0.039 -0.617,0.043 -0.613,0.039 -0.618,0.039 -0.613,0.031 -0.617,0.008 -0.621,0.012 h -0.61 l -0.621,-0.012 -0.609,-0.008 -0.621,-0.011 h -1.84 l -0.617,0.011 -0.613,0.008 -0.618,0.012 -0.613,0.008 -0.617,0.011 -0.609,0.02 -0.622,0.012 -0.609,0.019 -0.621,0.02 -0.609,0.019 -0.621,0.02 -0.61,0.011 -0.621,0.008 h -0.609 l -0.621,0.012 h -0.61 l -0.621,0.008 h -0.609 l -0.617,0.011 -0.614,0.008 h -0.617 l -0.609,0.012 -0.621,0.012 h -0.61 l -0.621,0.008 h -0.609 l -0.621,0.011 h -1.231 l -0.609,0.008 -0.621,0.012 h -0.61 l -0.621,0.008 -0.609,0.011 h -3.078 l -0.61,0.008 H 97.57 l -0.609,0.012 -0.621,0.012 -0.61,0.019 -0.621,0.008 H 94.5 l -0.621,0.012 H 93.27 l -0.622,-0.012 h -0.609 l -0.617,-0.008 -0.613,-0.012 -0.618,-0.007 -0.613,-0.012 h -0.617 l -0.609,-0.012 H 86.5 l -0.609,0.012 H 85.27 l -0.61,0.012 h -0.621 l -0.609,0.007 h -0.621 l -0.61,0.012 h -1.847 l -0.622,-0.012 h -0.609 l -0.621,0.012 h -0.609 l -0.621,0.008 h -0.61 l -0.621,0.012 -0.609,0.007 h -0.621 l -0.61,0.012 h -3.078 l -0.609,-0.012 h -4.313 l -0.609,0.012 h -1.231 l -0.621,-0.012 h -0.609 l -0.617,-0.007 h -0.614 l -0.617,-0.012 h -0.609 l -0.621,-0.008 h -1.84 l -0.621,0.008 h -0.61 l -0.621,0.012 h -1.23 l -0.609,0.007 h -1.231 l -0.617,0.012 h -0.613 l -0.618,0.012 H 46.52 l -0.61,-0.012 h -3.691 l -0.617,-0.012 h -3.071 l -0.621,0.012 h -0.609 l -0.621,0.012 h -8 l -0.61,0.008 h -0.621 l -0.609,-0.008 h -1.852 l -0.609,-0.012 h -0.617 l -0.614,-0.012 h -2.457 l -0.621,0.012 h -3.691 l -0.609,0.012 h -1.848 l -0.613,0.008 H 8.391 L 7.77,405.422 H 1.621 l -0.609,0.008 z" /><path
                   id="path130"
                   style="fill:#440154;fill-opacity:1;fill-rule:nonzero;stroke:none"
                   d="m 0,363.809 h 1.301 l 1.148,0.011 1.153,0.008 H 4.75 l 1.148,0.012 h 2.301 l 1.153,-0.012 H 10.5 l 1.148,-0.008 1.153,-0.011 h 1.148 l 1.153,-0.008 h 3.449 l 1.148,0.008 H 22 l 1.148,0.011 h 2.301 l 1.153,-0.011 h 3.449 l 1.148,0.011 h 1.153 l 1.148,0.02 1.148,0.012 1.153,0.007 1.148,0.02 h 1.141 l 1.148,0.012 h 2.301 l 1.152,-0.012 h 9.2 l 1.148,0.012 1.152,0.007 2.297,0.024 1.153,0.008 1.148,0.019 1.152,0.012 h 3.45 l 1.148,-0.012 h 4.602 l 1.148,0.012 1.152,0.008 1.149,0.011 1.148,0.02 1.153,0.02 1.148,0.019 1.152,0.02 1.149,0.031 1.148,0.019 1.153,0.02 1.148,0.019 1.152,0.012 h 1.149 l 1.148,0.012 h 1.153 l 1.148,0.008 1.152,0.011 1.137,0.008 1.152,0.012 h 1.149 l 1.152,-0.012 1.149,-0.008 1.148,-0.011 h 1.152 l 1.149,0.011 1.152,0.02 2.297,0.078 1.152,0.039 1.149,0.031 1.152,0.032 1.149,0.019 1.148,0.012 1.152,0.027 1.149,0.031 1.152,0.04 2.297,0.101 1.152,0.059 1.149,0.07 1.152,0.059 1.149,0.062 1.148,0.051 1.152,0.047 1.149,0.043 1.152,0.039 1.149,0.051 1.148,0.046 1.152,0.071 1.149,0.062 1.152,0.071 1.149,0.078 1.148,0.082 1.152,0.09 1.149,0.097 1.152,0.09 1.149,0.09 1.148,0.101 1.152,0.098 1.149,0.121 1.152,0.129 1.149,0.133 1.14,0.148 1.149,0.161 1.152,0.179 1.149,0.199 1.152,0.211 2.297,0.461 1.152,0.239 1.149,0.261 1.152,0.289 1.148,0.313 1.149,0.316 1.152,0.321 1.149,0.312 1.152,0.301 1.148,0.297 1.149,0.293 1.152,0.316 1.149,0.344 1.152,0.379 1.148,0.398 1.149,0.41 1.152,0.403 1.149,0.359 1.152,0.32 1.148,0.258 1.149,0.223 1.152,0.18 1.149,0.16 1.152,0.16 1.148,0.156 1.149,0.16 1.152,0.133 1.149,0.078 h 1.152 l 1.148,-0.109 1.149,-0.192 1.152,-0.277 1.149,-0.332 1.152,-0.367 1.148,-0.41 1.149,-0.442 1.152,-0.48 1.149,-0.531 1.152,-0.571 1.137,-0.617 1.152,-0.66 1.148,-0.711 1.153,-0.738 1.148,-0.75 1.149,-0.731 1.152,-0.691 1.148,-0.621 1.153,-0.528 1.148,-0.441 1.149,-0.359 1.152,-0.27 1.148,-0.211 v -0.781 l -1.148,-0.207 -1.152,-0.274 -1.149,-0.359 -1.148,-0.437 -1.153,-0.543 -1.148,-0.61 -1.152,-0.687 -1.149,-0.731 -1.148,-0.75 -1.153,-0.742 -1.148,-0.711 -1.152,-0.656 -1.137,-0.621 -1.152,-0.571 -1.149,-0.531 -1.152,-0.48 -1.149,-0.438 -1.148,-0.41 -1.152,-0.371 -1.149,-0.34 -1.152,-0.269 -1.149,-0.2 -1.148,-0.101 h -1.152 l -1.149,0.07 -1.152,0.141 -2.297,0.32 -1.152,0.16 -1.149,0.16 -1.152,0.18 -1.149,0.207 -1.148,0.274 -1.152,0.32 -1.149,0.359 -1.152,0.399 -1.149,0.41 -1.148,0.398 -1.152,0.383 -1.149,0.34 -1.152,0.309 -1.149,0.3 -1.148,0.289 -1.152,0.301 -1.149,0.32 -1.152,0.321 -1.149,0.32 -1.148,0.309 -1.152,0.281 -1.149,0.258 -1.152,0.25 -2.297,0.461 -1.152,0.211 -1.149,0.199 -1.152,0.18 -1.149,0.16 -1.14,0.148 -1.149,0.133 -1.152,0.129 -1.149,0.109 -1.152,0.11 -1.148,0.101 -1.149,0.09 -1.152,0.09 -1.149,0.09 -1.152,0.09 -1.148,0.089 -1.149,0.071 -1.152,0.07 -1.149,0.07 -1.152,0.059 -1.148,0.062 -1.149,0.047 -1.152,0.043 -1.149,0.039 -1.152,0.051 -1.148,0.051 -1.149,0.058 -1.152,0.059 -1.149,0.07 -1.152,0.051 -1.148,0.059 -1.149,0.051 -1.152,0.039 -1.149,0.031 -1.152,0.019 -2.297,0.039 -1.152,0.024 -1.149,0.039 -1.152,0.039 -1.148,0.039 -1.149,0.031 -1.152,0.032 -1.149,0.007 h -1.152 l -1.148,-0.007 -1.149,-0.012 -1.152,-0.012 H 90.98 l -1.152,0.012 -1.137,0.012 -1.152,0.007 -1.148,0.012 H 84.09 l -1.149,0.008 -1.152,0.012 -1.148,0.019 -1.153,0.02 -2.297,0.039 -1.152,0.031 -1.148,0.02 -1.153,0.019 -1.148,0.012 -1.149,0.019 -1.152,0.008 -1.148,0.012 h -3.45 l -1.152,-0.012 h -1.148 l -1.153,-0.008 -1.148,0.008 h -1.149 l -1.152,0.012 -1.148,0.012 -1.153,0.019 -1.148,0.008 -1.149,0.012 -1.152,0.007 -1.148,0.012 h -3.45 l -1.152,-0.012 h -1.148 l -1.153,0.012 H 43.84 l -1.149,-0.012 H 38.09 l -1.141,0.012 -1.148,0.012 -1.153,0.019 -1.148,0.008 -1.148,0.012 -1.153,0.008 -1.148,0.011 H 27.75 l -1.148,-0.011 H 22 l -1.148,0.011 h -1.153 l -1.148,0.008 H 16.25 l -1.148,-0.008 h -1.153 l -1.148,-0.011 H 11.648 L 10.5,363.711 H 9.352 L 8.199,363.699 H 5.898 L 4.75,363.711 H 3.602 l -1.153,0.008 -1.148,0.011 H 0 Z" /><path
                   id="path132"
                   style="fill:#440154;fill-opacity:1;fill-rule:nonzero;stroke:none"
                   d="m 0,322.141 h 1.352 l 0.91,0.007 h 8.179 l 0.899,-0.007 0.91,0.007 h 2.73 l 0.911,0.012 h 3.629 l 0.91,-0.012 h 0.91 l 0.91,-0.007 h 2.719 l 0.91,0.007 1.82,0.024 0.903,0.008 0.91,0.011 h 4.539 l 0.91,-0.011 0.91,-0.008 h 2.731 l 0.91,0.008 h 0.898 l 0.91,0.011 0.91,0.008 0.911,0.012 0.91,0.008 0.91,0.011 0.898,0.008 1.821,0.024 0.91,0.008 h 0.91 l 0.91,0.011 h 0.899 l 0.91,-0.011 h 6.359 l 0.91,0.011 h 0.91 l 0.911,0.008 0.91,0.012 h 0.902 l 0.91,0.008 0.91,0.011 h 4.539 l 0.911,-0.011 h 1.82 l 0.91,-0.008 0.91,0.008 0.899,0.011 0.91,0.008 0.91,0.012 2.73,0.058 0.899,0.012 0.91,0.012 h 0.91 l 0.91,-0.012 h 0.911 l 0.91,-0.012 h 0.91 l 0.898,0.012 h 0.91 l 0.911,0.012 0.91,0.008 0.91,0.011 h 0.91 l 0.902,0.008 0.911,0.012 0.91,0.008 0.91,0.011 0.906,0.02 0.91,0.02 0.903,0.011 0.91,0.02 0.91,0.008 0.91,0.011 0.91,0.008 1.821,0.024 0.898,0.019 0.91,0.02 0.91,0.031 0.91,0.027 0.911,0.031 0.91,0.04 0.898,0.039 2.731,0.152 0.91,0.059 0.91,0.05 0.898,0.059 2.731,0.152 1.82,0.078 0.91,0.02 0.903,0.019 0.91,0.012 0.906,0.012 0.91,0.008 0.91,0.019 0.911,0.031 0.902,0.051 0.91,0.047 1.82,0.141 0.911,0.082 0.91,0.09 0.91,0.078 0.898,0.09 0.91,0.101 0.911,0.09 0.91,0.102 0.91,0.097 0.91,0.102 0.899,0.078 0.91,0.09 2.73,0.211 0.91,0.082 0.899,0.097 0.91,0.129 0.91,0.141 0.91,0.172 0.91,0.179 0.911,0.192 0.91,0.199 0.898,0.188 2.731,0.632 0.91,0.231 0.91,0.219 0.902,0.218 1.821,0.461 0.91,0.239 0.91,0.25 0.906,0.261 0.902,0.282 1.821,0.578 1.82,0.601 1.82,0.578 0.899,0.282 0.91,0.257 0.91,0.262 0.91,0.25 0.91,0.262 0.911,0.269 0.898,0.27 0.91,0.277 0.91,0.262 0.911,0.25 0.91,0.23 0.91,0.192 0.91,0.137 0.898,0.101 0.911,0.039 0.91,-0.019 0.91,-0.09 0.91,-0.141 0.91,-0.211 0.903,-0.25 0.91,-0.289 0.91,-0.32 0.906,-0.348 0.91,-0.371 0.91,-0.41 0.903,-0.441 0.91,-0.489 0.91,-0.519 0.91,-0.563 0.91,-0.59 0.911,-0.617 0.91,-0.633 0.898,-0.628 0.91,-0.622 0.91,-0.609 0.911,-0.578 0.91,-0.551 0.91,-0.5 0.898,-0.449 0.911,-0.391 0.91,-0.332 0.91,-0.277 0.91,-0.231 0.91,-0.179 0.899,-0.141 0.91,-0.101 v -0.399 l -0.91,-0.109 -0.899,-0.129 -0.91,-0.184 -0.91,-0.226 -0.91,-0.282 -0.91,-0.339 -0.911,-0.391 -0.898,-0.449 -0.91,-0.5 -0.91,-0.539 -0.911,-0.582 -0.91,-0.61 -0.91,-0.621 -0.898,-0.64 -0.91,-0.618 -0.911,-0.621 -0.91,-0.59 -0.91,-0.57 -0.91,-0.519 -0.91,-0.481 -0.903,-0.441 -0.91,-0.41 -0.91,-0.379 -0.906,-0.352 -0.91,-0.316 -0.91,-0.293 -0.903,-0.25 -0.91,-0.199 -0.91,-0.149 -0.91,-0.082 -0.91,-0.019 -0.911,0.039 -0.898,0.089 -0.91,0.153 -0.91,0.187 -0.91,0.223 -0.911,0.25 -1.82,0.539 -0.898,0.281 -0.911,0.258 -0.91,0.262 -0.91,0.258 -0.91,0.25 -0.91,0.269 -0.899,0.281 -0.91,0.282 -0.91,0.3 -0.91,0.289 -0.91,0.301 -0.91,0.297 -0.911,0.281 -0.902,0.282 -0.906,0.269 -0.91,0.25 -0.91,0.238 -0.911,0.231 -0.91,0.223 -0.902,0.226 -0.91,0.223 -1.821,0.437 -0.91,0.211 -0.91,0.199 -0.898,0.204 -0.91,0.187 -0.911,0.191 -0.91,0.18 -0.91,0.168 -0.91,0.152 -0.91,0.122 -0.899,0.097 -0.91,0.082 -0.91,0.078 -0.91,0.063 -1.82,0.156 -0.899,0.094 -0.91,0.098 -0.91,0.089 -0.91,0.102 -0.911,0.098 -0.91,0.089 -0.898,0.09 -0.91,0.09 -0.91,0.082 -0.911,0.078 -0.91,0.082 -0.91,0.059 -0.91,0.062 -0.902,0.039 -0.911,0.04 -0.91,0.011 -0.91,0.02 -0.906,0.008 -0.91,0.011 -0.903,0.008 -1.82,0.063 -0.91,0.039 -1.82,0.101 -0.911,0.059 -0.898,0.051 -0.91,0.058 -0.91,0.063 -0.91,0.047 -1.821,0.101 -0.898,0.039 -0.91,0.031 -0.911,0.04 -0.91,0.031 -1.82,0.039 -0.898,0.019 -0.911,0.02 -0.91,0.012 -0.91,0.007 -1.82,0.024 -0.91,0.008 -0.903,0.019 -0.91,0.02 -0.906,0.011 -0.91,0.02 -0.91,0.012 h -0.911 l -0.902,0.008 -0.91,0.011 -0.91,0.008 h -0.91 l -0.911,0.012 -0.91,0.008 H 84.02 l -0.911,-0.008 h -1.82 l -0.91,0.008 -0.899,0.011 -0.91,0.02 -0.91,0.012 -1.82,0.039 -0.91,0.007 -0.899,0.012 h -2.73 l -0.91,-0.012 H 69.48 l -0.902,-0.007 h -1.816 l -0.91,0.007 h -0.911 l -0.91,0.012 h -0.91 l -0.902,0.012 -0.91,0.008 h -0.911 l -0.91,0.011 h -1.816 l -0.902,0.008 h -2.731 l -0.91,-0.008 H 49.5 l -0.91,0.008 -0.91,0.012 h -0.91 l -0.911,0.019 -0.898,0.008 -1.82,0.024 H 42.23 l -0.91,0.008 -0.91,0.011 -0.898,0.008 h -3.641 l -0.91,-0.008 h -0.91 l -0.903,-0.011 h -2.726 l -0.91,0.011 -0.91,0.008 -0.903,0.012 -0.91,0.008 h -0.91 l -0.91,0.011 h -0.91 l -0.911,0.008 -0.898,-0.008 h -0.91 l -0.91,-0.011 h -0.91 l -0.911,-0.008 h -1.82 l -0.898,0.008 H 14.98 l -0.91,0.011 H 0 Z" /><path
                   id="path134"
                   style="fill:#440154;fill-opacity:1;fill-rule:nonzero;stroke:none"
                   d="m 0,280.512 h 0.012 l 1.058,0.008 1.059,0.011 h 1.062 l 1.071,0.008 h 2.117 l 1.062,-0.008 H 8.512 L 9.57,280.52 h 4.25 l 1.059,0.011 h 8.5 l 1.062,-0.011 h 5.321 l 1.058,0.011 h 1.059 l 1.062,0.008 1.071,0.012 1.058,0.008 1.059,0.011 1.062,0.008 h 1.071 l 1.058,0.012 h 1.059 l 1.062,0.012 1.071,-0.012 h 2.117 l 1.062,-0.012 h 3.188 l 1.062,0.012 1.071,0.012 1.058,0.007 1.059,0.02 1.062,0.012 1.071,0.019 1.058,0.012 1.059,0.008 h 1.062 l 1.071,0.011 h 5.308 l 1.059,0.008 1.062,0.012 1.071,0.008 1.058,0.011 1.059,0.02 1.062,0.02 1.071,0.019 2.117,0.039 1.062,0.024 1.071,0.019 1.058,0.008 1.059,0.012 h 1.062 l 1.071,0.007 h 1.058 l 1.059,0.012 1.062,0.012 h 2.129 l 1.059,0.008 h 3.191 l 1.059,0.011 1.062,0.02 1.071,0.008 1.058,0.031 1.059,0.02 1.062,0.031 1.071,0.039 1.058,0.031 1.059,0.039 1.062,0.031 1.071,0.039 1.058,0.032 1.059,0.019 1.062,0.028 1.071,0.019 1.058,0.024 1.059,0.019 1.062,0.02 1.071,0.031 1.058,0.027 1.059,0.051 1.062,0.059 1.071,0.082 1.058,0.078 1.059,0.082 1.062,0.09 1.071,0.089 1.058,0.09 1.059,0.078 1.062,0.071 1.071,0.062 1.058,0.047 1.059,0.051 1.062,0.043 1.071,0.039 1.058,0.059 1.059,0.082 1.062,0.097 1.071,0.121 1.058,0.129 1.059,0.153 1.062,0.148 1.071,0.148 2.117,0.321 1.062,0.16 1.071,0.16 1.058,0.16 1.059,0.153 1.062,0.168 1.071,0.171 1.058,0.207 1.059,0.223 1.062,0.258 1.071,0.281 1.058,0.281 1.059,0.27 1.062,0.258 1.071,0.23 1.058,0.223 1.059,0.187 1.062,0.2 1.071,0.203 1.058,0.218 1.059,0.239 1.062,0.25 1.059,0.261 1.07,0.25 1.059,0.239 1.062,0.23 1.059,0.242 1.07,0.25 1.059,0.258 1.062,0.262 1.059,0.238 1.07,0.211 1.059,0.16 1.062,0.129 1.059,0.082 1.07,0.039 1.059,0.008 1.062,-0.019 1.059,-0.071 1.07,-0.109 1.059,-0.168 1.062,-0.223 1.059,-0.269 1.07,-0.321 1.059,-0.367 1.062,-0.422 1.059,-0.468 1.07,-0.52 1.059,-0.562 1.062,-0.59 1.059,-0.598 1.07,-0.609 1.059,-0.59 1.062,-0.582 1.059,-0.539 1.07,-0.52 1.059,-0.48 1.062,-0.449 1.059,-0.403 1.07,-0.371 1.059,-0.308 1.062,-0.27 1.059,-0.23 v -1.149 l -1.059,-0.223 -1.062,-0.277 -1.059,-0.312 -1.07,-0.36 -1.059,-0.41 -1.062,-0.437 -1.059,-0.493 -1.07,-0.507 -1.059,-0.551 -1.062,-0.582 -1.059,-0.59 -1.07,-0.598 -1.059,-0.609 -1.062,-0.582 -1.059,-0.559 -1.07,-0.519 -1.059,-0.481 -1.062,-0.422 -1.059,-0.371 -1.07,-0.316 -1.059,-0.274 -1.062,-0.218 -1.059,-0.16 -1.07,-0.122 -1.059,-0.07 -1.062,-0.019 -1.059,0.011 -1.07,0.039 -1.059,0.082 -1.062,0.129 -1.059,0.168 -1.07,0.203 -1.059,0.25 -1.062,0.25 -1.059,0.258 -1.07,0.25 -1.059,0.242 -1.062,0.239 -1.059,0.242 -1.07,0.25 -1.059,0.25 -1.062,0.25 -1.059,0.238 -1.058,0.219 -1.071,0.211 -1.062,0.191 -1.059,0.199 -1.058,0.211 -1.071,0.231 -1.062,0.258 -1.059,0.269 -1.058,0.281 -1.071,0.282 -1.062,0.258 -1.059,0.23 -1.058,0.199 -1.071,0.172 -1.062,0.168 -1.059,0.152 -1.058,0.161 -1.071,0.16 -1.062,0.16 -1.059,0.156 -1.058,0.16 -1.071,0.153 -1.062,0.16 -1.059,0.14 -1.058,0.129 -1.071,0.121 -1.062,0.098 -1.059,0.082 -1.058,0.059 -1.071,0.05 -1.062,0.04 -1.059,0.039 -1.058,0.05 -1.071,0.063 -1.062,0.066 -1.059,0.082 -1.058,0.09 -1.071,0.09 -1.062,0.09 -1.059,0.082 -1.058,0.09 -1.071,0.066 -1.062,0.063 -1.059,0.05 -1.058,0.039 -1.071,0.02 -1.062,0.02 -2.117,0.039 -1.071,0.019 -1.062,0.031 -2.117,0.063 -1.071,0.027 -1.062,0.031 -1.059,0.04 -1.058,0.031 -1.071,0.039 -1.062,0.031 -1.059,0.027 -1.058,0.024 -1.071,0.019 -1.062,0.008 -1.059,0.012 h -2.129 l -1.062,0.008 h -2.117 l -1.071,0.011 h -1.062 l -1.059,0.008 H 80.762 L 79.691,280 78.629,280.012 H 77.57 l -1.058,0.008 -1.071,0.019 -1.062,0.02 -1.059,0.019 -1.058,0.024 -1.071,0.019 -1.062,0.02 -1.059,0.019 -1.058,0.012 -1.071,0.019 h -1.062 l -1.059,0.008 h -4.25 l -1.058,0.012 h -2.133 l -1.059,0.008 -1.058,0.019 -1.071,0.012 -1.062,0.02 -1.059,0.011 -1.058,0.008 -1.071,0.012 -1.062,0.008 h -4.25 l -1.059,-0.008 h -4.25 l -1.058,0.008 -1.071,0.011 -1.062,0.008 -2.117,0.024 h -1.071 l -1.062,0.007 -1.059,0.012 h -7.441 l -1.059,-0.012 h -6.379 l -1.062,0.012 H 9.57 L 8.512,280.359 H 6.379 L 5.32,280.352 H 4.262 l -1.071,0.007 H 2.129 l -1.059,0.012 -1.058,0.008 H 0 Z" /><path
                   id="path136"
                   style="fill:#440154;fill-opacity:1;fill-rule:nonzero;stroke:none"
                   d="m 224.531,239.141 0.75,0.129 0.739,0.16 0.742,0.191 0.75,0.231 0.738,0.269 0.738,0.301 0.75,0.34 0.742,0.379 0.739,0.41 0.75,0.437 0.742,0.481 0.738,0.511 0.75,0.54 0.742,0.582 0.739,0.609 0.75,0.641 0.742,0.66 0.738,0.66 0.75,0.637 0.738,0.621 0.75,0.57 0.743,0.5 0.738,0.449 0.75,0.371 0.742,0.309 0.738,0.25 0.75,0.191 0.743,0.16 0.738,0.122 0.75,0.089 0.738,0.09 0.742,0.071 0.75,0.07 0.739,0.058 0.742,0.059 0.75,0.039 0.738,0.024 0.742,-0.024 0.75,-0.078 0.739,-0.129 0.742,-0.199 0.75,-0.262 0.738,-0.308 0.75,-0.34 0.738,-0.364 0.742,-0.359 0.75,-0.348 0.739,-0.332 0.742,-0.3 0.75,-0.27 0.738,-0.258 0.742,-0.23 0.75,-0.223 0.739,-0.207 0.742,-0.199 0.75,-0.203 0.738,-0.199 0.738,-0.18 0.75,-0.18 0.743,-0.18 0.738,-0.179 0.75,-0.18 0.742,-0.18 0.738,-0.191 0.75,-0.199 0.743,-0.192 0.738,-0.187 0.75,-0.192 0.738,-0.171 0.75,-0.161 0.742,-0.148 0.739,-0.148 0.75,-0.153 0.742,-0.148 0.738,-0.16 0.75,-0.18 0.742,-0.18 0.739,-0.203 0.75,-0.199 0.742,-0.199 0.738,-0.2 0.75,-0.191 0.738,-0.18 0.742,-0.16 0.75,-0.14 0.739,-0.129 0.742,-0.11 0.75,-0.101 0.738,-0.078 0.742,-0.082 0.75,-0.071 0.739,-0.066 0.75,-0.063 0.742,-0.058 0.738,-0.071 0.75,-0.05 0.738,-0.059 0.743,-0.051 0.75,-0.039 0.738,-0.051 0.742,-0.031 0.75,-0.039 0.738,-0.039 0.743,-0.031 0.75,-0.031 1.476,-0.079 0.75,-0.039 0.742,-0.05 0.739,-0.051 0.75,-0.059 0.742,-0.062 0.738,-0.071 0.75,-0.07 0.742,-0.066 0.75,-0.063 0.739,-0.058 0.742,-0.039 0.75,-0.043 0.738,-0.039 0.738,-0.02 0.75,-0.031 0.742,-0.02 0.739,-0.019 0.75,-0.02 0.742,-0.019 0.738,-0.02 0.75,-0.012 0.742,-0.019 0.739,-0.012 0.75,-0.019 0.742,-0.02 0.738,-0.019 0.75,-0.008 0.738,-0.024 0.743,-0.008 0.75,-0.019 0.738,-0.02 0.75,-0.011 0.742,-0.02 0.738,-0.012 0.75,-0.019 0.743,-0.008 h 2.226 l 0.742,0.008 0.75,0.012 0.739,0.007 h 0.742 l 0.75,0.012 h 1.48 l 0.75,-0.012 h 1.481 l 0.75,-0.007 H 342 l 0.738,-0.012 h 0.75 l 0.742,-0.008 h 0.739 l 0.75,-0.012 h 0.742 l 0.75,-0.007 h 2.969 l 0.742,0.007 0.75,-0.007 h 0.738 l 0.738,-0.012 0.75,-0.012 0.743,-0.019 0.738,-0.008 0.75,-0.02 0.742,-0.011 0.738,-0.008 0.75,-0.012 0.743,-0.012 H 360 v -0.41 h -0.898 l -0.743,-0.008 -0.75,-0.011 -0.738,-0.008 -0.742,-0.012 -0.75,-0.019 -0.738,-0.008 -0.743,-0.024 -0.75,-0.008 -0.738,-0.011 -0.738,-0.008 h -1.492 l -0.739,0.008 h -2.23 l -0.75,-0.008 h -0.742 l -0.75,-0.012 h -0.739 l -0.742,-0.008 h -0.75 L 342,238.43 h -0.738 l -0.75,-0.008 h -0.742 l -0.739,-0.012 h -2.23 l -0.75,0.012 h -0.742 l -0.739,0.008 -0.75,0.011 h -0.742 l -0.738,0.008 h -0.75 l -0.738,-0.008 h -0.743 l -0.75,-0.019 -0.738,-0.012 -0.742,-0.019 -0.75,-0.02 -0.738,-0.012 -0.75,-0.019 -0.743,-0.012 -0.738,-0.019 -0.75,-0.008 -0.738,-0.02 -0.742,-0.019 -0.75,-0.024 -0.739,-0.008 -0.742,-0.019 -0.75,-0.02 -0.738,-0.011 -0.742,-0.02 -0.75,-0.019 -0.739,-0.02 -0.742,-0.019 -0.75,-0.032 -0.738,-0.031 -0.738,-0.027 -0.75,-0.043 -0.742,-0.039 -0.739,-0.059 -0.75,-0.062 -0.742,-0.071 -0.75,-0.066 -0.738,-0.07 -0.742,-0.063 -0.75,-0.059 -0.739,-0.05 -0.742,-0.051 -0.75,-0.039 -1.476,-0.078 -0.75,-0.032 -0.743,-0.039 -0.738,-0.031 -0.75,-0.039 -0.742,-0.031 -0.738,-0.051 -0.75,-0.039 -0.743,-0.051 -0.738,-0.058 -0.75,-0.063 -0.738,-0.058 -0.742,-0.059 -0.75,-0.07 -0.739,-0.063 -0.75,-0.066 -0.742,-0.082 -0.738,-0.078 -0.75,-0.102 -0.742,-0.109 -0.739,-0.129 -0.75,-0.141 -0.742,-0.16 -0.738,-0.18 -0.75,-0.191 -0.738,-0.199 -0.742,-0.2 -0.75,-0.203 -0.739,-0.199 -0.742,-0.18 -0.75,-0.179 -0.738,-0.16 -0.742,-0.161 -0.75,-0.14 -0.739,-0.149 -0.742,-0.148 -0.75,-0.16 -0.738,-0.172 -0.75,-0.192 -0.738,-0.187 -0.743,-0.191 -0.75,-0.2 -0.738,-0.191 -0.742,-0.18 -0.75,-0.179 -0.738,-0.18 -0.743,-0.18 -0.75,-0.18 -0.738,-0.179 -0.738,-0.199 -0.75,-0.204 -0.742,-0.199 -0.739,-0.211 -0.75,-0.218 -0.742,-0.239 -0.738,-0.25 -0.75,-0.269 -0.742,-0.301 -0.739,-0.332 -0.75,-0.348 -0.742,-0.359 -0.738,-0.363 -0.75,-0.348 -0.738,-0.301 -0.75,-0.262 -0.742,-0.199 -0.739,-0.14 -0.75,-0.071 -0.742,-0.019 -0.738,0.019 -0.75,0.043 -0.742,0.059 -0.739,0.058 -0.75,0.071 -0.742,0.07 -0.738,0.082 -0.75,0.098 -0.738,0.121 -0.743,0.16 -0.75,0.191 -0.738,0.25 -0.742,0.309 -0.75,0.371 -0.738,0.438 -0.743,0.511 -0.75,0.571 -0.738,0.621 -0.75,0.636 -0.738,0.661 -0.742,0.66 -0.75,0.64 -0.739,0.61 -0.742,0.582 -0.75,0.539 -0.738,0.512 -0.742,0.476 -0.75,0.442 -0.739,0.41 -0.742,0.379 -0.75,0.339 -0.738,0.301 -0.738,0.27 -0.75,0.23 -0.742,0.192 -0.739,0.16 -0.75,0.121 z" /><path
                   id="path138"
                   style="fill:#440154;fill-opacity:1;fill-rule:nonzero;stroke:none"
                   d="m 223.93,197.219 0.91,0.062 0.91,0.078 0.91,0.11 0.918,0.152 0.91,0.188 0.91,0.242 0.911,0.277 0.91,0.332 0.91,0.371 0.922,0.41 0.91,0.438 0.91,0.492 0.91,0.508 0.91,0.551 0.911,0.57 0.918,0.602 1.82,1.257 0.91,0.641 0.91,0.629 0.91,0.609 0.918,0.582 0.91,0.539 0.911,0.493 0.91,0.429 0.91,0.367 0.922,0.313 0.91,0.25 0.91,0.18 0.91,0.109 0.91,0.051 0.911,-0.031 0.918,-0.09 0.91,-0.149 0.91,-0.191 0.91,-0.219 0.91,-0.223 0.91,-0.226 0.918,-0.211 0.91,-0.211 1.821,-0.398 0.91,-0.223 0.91,-0.219 0.922,-0.238 1.82,-0.461 0.91,-0.223 0.911,-0.218 0.91,-0.211 0.918,-0.231 0.91,-0.238 0.91,-0.262 0.91,-0.269 0.91,-0.289 0.918,-0.282 0.91,-0.277 0.911,-0.27 0.91,-0.25 0.91,-0.23 0.91,-0.223 0.922,-0.207 1.82,-0.383 0.91,-0.179 0.911,-0.168 0.91,-0.172 0.918,-0.168 0.91,-0.16 0.91,-0.172 0.91,-0.168 0.91,-0.16 0.91,-0.172 0.918,-0.16 1.821,-0.321 0.91,-0.148 0.91,-0.141 0.922,-0.129 0.91,-0.121 0.91,-0.097 0.91,-0.09 0.911,-0.063 0.91,-0.05 0.918,-0.039 1.82,-0.079 0.91,-0.031 1.82,-0.101 0.918,-0.059 0.911,-0.059 0.91,-0.062 1.82,-0.117 0.91,-0.063 0.922,-0.058 1.82,-0.102 0.911,-0.059 0.91,-0.05 0.918,-0.051 2.73,-0.117 1.82,-0.063 0.918,-0.019 0.911,-0.02 0.91,-0.031 0.91,-0.027 0.91,-0.024 0.91,-0.027 0.922,-0.02 0.91,-0.019 1.821,-0.024 0.91,-0.008 0.91,-0.011 0.918,-0.008 0.91,-0.02 0.91,-0.011 1.82,-0.039 0.918,-0.032 2.731,-0.058 0.91,-0.012 0.91,-0.008 0.922,-0.011 0.91,-0.008 1.821,-0.024 0.91,-0.008 0.91,-0.031 0.918,-0.019 0.91,-0.032 0.91,-0.027 1.82,-0.062 0.911,-0.008 0.918,-0.012 0.91,-0.008 0.91,0.008 0.91,0.012 1.82,0.039 0.922,0.012 0.219,0.007 v -0.468 h -0.219 l -0.922,0.019 -0.91,0.012 -0.91,0.019 -0.91,0.008 -0.91,0.012 h -0.91 l -0.918,-0.012 -1.821,-0.039 -0.91,-0.031 -0.91,-0.027 -0.91,-0.032 -0.918,-0.031 -1.82,-0.039 -0.911,-0.012 -0.91,-0.008 -0.91,-0.011 h -0.922 l -0.91,-0.008 -1.82,-0.039 -0.91,-0.024 -0.911,-0.019 -0.918,-0.02 -2.73,-0.058 -0.91,-0.012 -0.918,-0.008 -0.91,-0.011 -0.91,-0.008 -0.911,-0.012 -0.91,-0.02 -0.91,-0.011 -0.922,-0.028 -0.91,-0.019 -0.91,-0.031 -0.91,-0.02 -0.91,-0.031 -0.911,-0.02 -0.918,-0.031 -0.91,-0.019 -0.91,-0.032 -1.82,-0.078 -0.91,-0.051 -0.918,-0.05 -0.91,-0.047 -1.821,-0.102 -0.91,-0.058 -0.922,-0.051 -0.91,-0.063 -1.82,-0.117 -0.91,-0.07 -0.911,-0.063 -0.918,-0.058 -0.91,-0.051 -1.82,-0.078 -0.91,-0.031 -0.91,-0.04 -0.918,-0.039 -0.91,-0.05 -0.911,-0.071 -0.91,-0.082 -0.91,-0.097 -0.91,-0.121 -0.922,-0.129 -0.91,-0.153 -1.82,-0.297 -0.911,-0.16 -0.918,-0.172 -0.91,-0.16 -0.91,-0.168 -0.91,-0.172 -0.91,-0.16 -0.91,-0.168 -0.918,-0.16 -0.91,-0.172 -0.911,-0.168 -0.91,-0.179 -0.91,-0.192 -0.91,-0.199 -0.922,-0.211 -0.91,-0.211 -0.91,-0.238 -0.91,-0.25 -0.911,-0.262 -0.91,-0.277 -0.918,-0.293 -0.91,-0.278 -0.91,-0.281 -0.91,-0.262 -0.91,-0.238 -0.918,-0.219 -0.91,-0.222 -0.911,-0.207 -0.91,-0.223 -0.91,-0.23 -0.91,-0.239 -0.922,-0.23 -0.91,-0.231 -0.91,-0.211 -0.91,-0.207 -0.911,-0.203 -0.91,-0.199 -0.918,-0.219 -0.91,-0.218 -0.91,-0.231 -0.91,-0.223 -0.91,-0.187 -0.91,-0.141 -0.918,-0.09 -0.911,-0.031 -0.91,0.039 -0.91,0.121 -0.91,0.18 -0.91,0.242 -0.922,0.309 -0.91,0.371 -0.91,0.43 -0.911,0.488 -0.91,0.543 -0.918,0.578 -0.91,0.609 -0.91,0.641 -0.91,0.629 -0.91,0.641 -0.91,0.621 -0.918,0.597 -0.911,0.582 -0.91,0.539 -0.91,0.52 -0.91,0.48 -0.91,0.45 -0.922,0.41 -0.91,0.371 -0.91,0.332 -0.911,0.277 -0.91,0.231 -0.91,0.199 -0.918,0.152 -0.91,0.11 -0.91,0.078 -0.91,0.062 z" /><path
                   id="path140"
                   style="fill:#440154;fill-opacity:1;fill-rule:nonzero;stroke:none"
                   d="m 229.988,155.879 1.332,0.223 1.328,0.269 1.321,0.328 1.332,0.403 1.328,0.449 1.32,0.508 1.332,0.57 1.321,0.641 1.328,0.691 1.332,0.738 1.316,0.75 1.332,0.742 1.328,0.68 1.321,0.617 1.332,0.524 1.328,0.429 1.32,0.368 1.332,0.312 1.32,0.258 1.329,0.23 1.332,0.161 1.32,0.07 1.328,-0.039 1.328,-0.141 1.32,-0.211 1.332,-0.238 1.321,-0.25 1.328,-0.211 1.332,-0.18 1.32,-0.179 1.328,-0.18 1.332,-0.199 1.321,-0.242 1.328,-0.282 1.332,-0.308 1.316,-0.328 1.332,-0.352 1.321,-0.359 1.328,-0.352 1.332,-0.359 1.32,-0.352 1.328,-0.348 1.332,-0.339 1.321,-0.313 1.328,-0.277 1.332,-0.211 1.316,-0.168 1.332,-0.133 1.32,-0.117 1.329,-0.133 1.332,-0.141 1.32,-0.16 1.328,-0.148 1.332,-0.141 1.32,-0.14 1.329,-0.129 1.332,-0.141 1.32,-0.141 1.328,-0.148 1.32,-0.141 1.328,-0.14 1.332,-0.129 1.321,-0.11 1.328,-0.101 1.332,-0.09 1.32,-0.09 1.328,-0.078 1.321,-0.07 1.332,-0.071 1.328,-0.05 1.32,-0.051 1.328,-0.051 1.332,-0.058 1.321,-0.051 1.328,-0.039 1.332,-0.051 1.32,-0.039 1.328,-0.031 1.321,-0.039 1.332,-0.04 1.328,-0.031 1.32,-0.039 1.328,-0.031 1.332,-0.039 1.32,-0.031 1.329,-0.02 1.332,-0.019 1.32,-0.02 1.328,-0.02 1.32,-0.019 1.332,-0.02 1.329,-0.031 1.32,-0.019 1.332,-0.032 1.328,-0.031 1.32,-0.027 1.328,-0.02 1.321,-0.011 H 360 v -0.622 h -0.031 l -1.321,-0.007 -1.328,-0.02 -1.32,-0.019 -1.328,-0.032 -1.332,-0.031 -1.32,-0.027 -1.329,-0.032 -1.332,-0.019 -1.32,-0.02 -1.328,-0.011 -1.32,-0.02 -1.332,-0.019 -1.329,-0.032 -1.32,-0.031 -1.332,-0.027 -1.328,-0.039 -1.32,-0.032 -1.328,-0.039 -1.332,-0.043 -1.321,-0.027 -1.328,-0.043 -1.32,-0.039 -1.332,-0.039 -1.328,-0.051 -1.321,-0.051 -1.332,-0.046 -1.328,-0.051 -1.32,-0.063 -1.328,-0.047 -1.332,-0.062 -1.321,-0.078 -1.328,-0.082 -1.32,-0.078 -1.332,-0.102 -1.328,-0.098 -1.321,-0.113 -1.332,-0.129 -1.328,-0.129 -1.32,-0.148 -1.328,-0.152 -1.32,-0.141 -1.332,-0.141 -1.329,-0.129 -1.32,-0.14 -1.332,-0.141 -1.328,-0.148 -1.32,-0.149 -1.332,-0.152 -1.329,-0.129 -1.32,-0.121 -1.332,-0.129 -1.316,-0.16 -1.332,-0.219 -1.328,-0.269 -1.321,-0.321 -1.332,-0.34 -1.328,-0.351 -1.32,-0.352 -1.332,-0.347 -1.328,-0.36 -1.321,-0.359 -1.332,-0.352 -1.316,-0.332 -1.332,-0.308 -1.328,-0.282 -1.321,-0.226 -1.332,-0.211 -1.328,-0.18 -1.32,-0.172 -1.332,-0.187 -1.328,-0.211 -1.321,-0.242 -1.332,-0.25 -1.32,-0.207 -1.328,-0.141 -1.328,-0.043 -1.32,0.082 -1.332,0.16 -1.329,0.219 -1.32,0.27 -1.332,0.312 -1.32,0.359 -1.328,0.43 -1.332,0.531 -1.321,0.61 -1.328,0.687 -1.332,0.731 -1.316,0.761 -1.332,0.731 -1.328,0.699 -1.321,0.629 -1.332,0.57 -1.32,0.512 -1.328,0.457 -1.332,0.391 -1.321,0.332 -1.328,0.277 -1.332,0.211 z" /><path
                   id="path142"
                   style="fill:#440154;fill-opacity:1;fill-rule:nonzero;stroke:none"
                   d="m 229.738,114.172 1.242,0.187 1.231,0.243 1.238,0.296 1.231,0.34 1.242,0.403 1.238,0.437 1.231,0.492 1.238,0.551 1.242,0.609 1.231,0.668 1.238,0.711 1.238,0.719 1.231,0.692 1.242,0.628 1.238,0.551 1.231,0.449 1.242,0.372 1.238,0.32 1.23,0.301 1.239,0.281 1.23,0.258 1.242,0.23 1.239,0.16 1.23,0.078 1.238,-0.027 1.243,-0.109 1.23,-0.16 1.238,-0.204 1.243,-0.207 1.226,-0.222 1.242,-0.207 1.239,-0.211 1.23,-0.211 1.242,-0.219 1.239,-0.211 1.23,-0.211 1.238,-0.219 1.231,-0.242 1.242,-0.258 1.238,-0.269 1.231,-0.289 1.242,-0.32 1.238,-0.352 1.231,-0.371 1.238,-0.367 1.242,-0.364 1.231,-0.339 1.238,-0.289 1.238,-0.239 1.231,-0.203 1.242,-0.18 1.23,-0.168 1.239,-0.171 1.242,-0.168 1.226,-0.161 1.242,-0.152 1.239,-0.109 1.23,-0.09 1.242,-0.059 1.239,-0.05 1.23,-0.051 1.238,-0.078 1.243,-0.102 1.23,-0.129 1.238,-0.14 1.243,-0.141 1.226,-0.149 1.242,-0.14 1.231,-0.129 1.238,-0.121 1.242,-0.102 1.231,-0.078 1.238,-0.058 1.238,-0.043 1.231,-0.039 1.242,-0.032 1.238,-0.027 1.231,-0.031 1.242,-0.039 1.238,-0.051 1.231,-0.039 1.238,-0.051 1.242,-0.051 1.231,-0.051 1.238,-0.039 1.23,-0.039 1.239,-0.039 1.242,-0.031 1.23,-0.039 1.239,-0.031 1.242,-0.032 1.226,-0.027 1.242,-0.031 1.239,-0.02 1.23,-0.019 1.242,-0.012 1.239,-0.008 1.23,-0.019 1.238,-0.012 1.243,-0.02 1.23,-0.019 1.238,-0.02 1.231,-0.019 1.238,-0.024 1.242,-0.019 H 360 v -0.66 h -0.43 l -1.242,-0.02 -1.238,-0.019 -1.231,-0.02 -1.238,-0.019 -1.23,-0.02 -1.243,-0.019 -1.238,-0.024 -1.23,-0.008 -1.239,-0.011 -1.242,-0.02 -1.23,-0.008 -1.239,-0.019 -1.242,-0.032 -1.226,-0.031 -1.242,-0.027 -1.239,-0.031 -1.23,-0.039 -1.242,-0.032 -1.239,-0.039 -1.23,-0.043 -1.238,-0.047 -1.231,-0.043 -1.242,-0.046 -1.238,-0.051 -1.231,-0.039 -1.238,-0.051 -1.242,-0.039 -1.231,-0.031 -1.238,-0.032 -1.242,-0.031 -1.231,-0.039 -1.238,-0.039 -1.238,-0.059 -1.231,-0.082 -1.242,-0.097 -1.238,-0.121 -1.231,-0.129 -1.242,-0.141 -1.226,-0.152 -1.243,-0.141 -1.238,-0.137 -1.23,-0.132 -1.243,-0.098 -1.238,-0.082 -1.23,-0.051 -1.239,-0.058 -1.242,-0.059 -1.23,-0.082 -1.239,-0.109 -1.242,-0.149 -1.226,-0.16 -1.242,-0.172 -1.239,-0.168 -1.23,-0.172 -1.242,-0.179 -1.231,-0.2 -1.238,-0.242 -1.238,-0.289 -1.231,-0.34 -1.242,-0.359 -1.238,-0.379 -1.231,-0.359 -1.238,-0.352 -1.242,-0.32 -1.231,-0.289 -1.238,-0.27 -1.242,-0.262 -1.231,-0.238 -1.238,-0.223 -1.23,-0.218 -1.239,-0.211 -1.242,-0.207 -1.23,-0.211 -1.239,-0.211 -1.242,-0.219 -1.226,-0.211 -1.243,-0.211 -1.238,-0.199 -1.23,-0.16 -1.243,-0.11 -1.238,-0.031 -1.23,0.082 -1.239,0.16 -1.242,0.231 -1.23,0.258 -1.239,0.281 -1.23,0.301 -1.238,0.316 -1.242,0.371 -1.231,0.449 -1.238,0.551 -1.242,0.629 -1.231,0.692 -1.238,0.718 -1.238,0.711 -1.231,0.672 -1.242,0.609 -1.238,0.551 -1.231,0.489 -1.238,0.441 -1.242,0.398 -1.231,0.34 -1.238,0.301 -1.231,0.238 -1.242,0.184 z" /><path
                   id="path144"
                   style="fill:#440154;fill-opacity:1;fill-rule:nonzero;stroke:none"
                   d="m 227.512,72.691 0.988,0.219 0.988,0.262 0.992,0.308 0.981,0.348 0.988,0.41 0.992,0.473 0.989,0.527 0.992,0.59 0.976,0.652 0.993,0.711 0.988,0.75 0.992,0.758 0.981,0.742 0.988,0.7 0.988,0.629 0.992,0.531 0.989,0.429 0.98,0.36 0.992,0.308 0.989,0.262 0.992,0.238 0.976,0.211 0.992,0.18 0.989,0.16 0.992,0.102 0.988,0.058 0.981,0.012 0.992,-0.031 0.988,-0.07 0.988,-0.09 0.981,-0.121 0.992,-0.129 0.988,-0.16 0.993,-0.211 0.988,-0.258 0.98,-0.321 0.989,-0.371 0.992,-0.398 0.988,-0.391 0.981,-0.379 0.992,-0.332 0.988,-0.281 0.988,-0.25 0.992,-0.199 0.981,-0.18 0.988,-0.168 0.992,-0.179 0.989,-0.192 0.98,-0.219 0.988,-0.242 0.993,-0.258 0.988,-0.281 0.992,-0.281 0.981,-0.277 0.988,-0.274 0.988,-0.258 0.992,-0.242 0.981,-0.238 0.988,-0.231 0.992,-0.218 0.989,-0.211 0.992,-0.192 0.976,-0.168 0.992,-0.14 0.989,-0.129 0.992,-0.102 0.98,-0.097 0.989,-0.09 0.992,-0.082 0.988,-0.078 0.988,-0.071 0.981,-0.07 0.992,-0.082 0.988,-0.09 0.993,-0.098 0.976,-0.121 0.992,-0.121 0.989,-0.129 0.992,-0.121 0.988,-0.097 0.981,-0.09 0.992,-0.063 0.988,-0.051 0.988,-0.027 0.981,-0.019 0.992,-0.024 0.988,-0.019 0.992,-0.008 0.989,-0.031 0.98,-0.032 0.988,-0.039 0.993,-0.039 0.988,-0.058 0.98,-0.051 0.993,-0.063 1.976,-0.117 0.992,-0.051 0.981,-0.039 0.988,-0.031 0.992,-0.02 0.989,-0.019 0.98,-0.012 0.988,-0.008 0.992,-0.011 0.989,-0.008 0.992,-0.012 0.98,-0.019 0.989,-0.02 0.992,-0.019 0.988,-0.024 0.981,-0.019 0.988,-0.008 0.992,-0.012 0.988,-0.008 0.993,-0.011 0.976,-0.02 0.992,-0.012 0.989,-0.019 0.992,-0.02 0.98,-0.019 0.989,-0.02 0.992,-0.019 0.988,-0.012 0.988,-0.02 0.981,-0.007 h 0.992 l 0.988,-0.012 h 1.973 l 0.988,0.012 0.988,0.007 0.993,0.012 H 360 v -0.473 h -0.121 l -0.988,0.012 -0.993,0.012 -0.988,0.008 h -3.949 l -0.992,-0.008 -0.981,-0.012 -0.988,-0.012 -0.988,-0.019 -0.992,-0.008 -0.989,-0.019 -0.98,-0.024 -0.992,-0.019 -0.989,-0.02 -0.992,-0.019 -0.976,-0.008 -0.993,-0.012 -0.988,-0.012 -0.992,-0.008 -0.988,-0.019 -0.981,-0.012 -0.988,-0.019 -0.992,-0.02 -0.989,-0.019 -0.98,-0.02 -0.992,-0.019 -0.989,-0.012 -0.992,-0.012 h -0.988 l -0.98,-0.019 -0.989,-0.008 -0.992,-0.02 -0.988,-0.043 -0.981,-0.039 -0.992,-0.051 -0.988,-0.046 -0.988,-0.063 -0.993,-0.059 -0.98,-0.058 -0.988,-0.051 -0.993,-0.051 -0.988,-0.039 -0.98,-0.031 -0.989,-0.02 -0.992,-0.019 -0.988,-0.012 -0.992,-0.019 -0.981,-0.02 -0.988,-0.039 -0.988,-0.043 -0.992,-0.066 -0.981,-0.082 -0.988,-0.102 -0.992,-0.117 -0.989,-0.133 -0.992,-0.129 -0.976,-0.121 -0.993,-0.098 -0.988,-0.089 -0.992,-0.071 -0.981,-0.082 -0.988,-0.066 -0.988,-0.07 -0.992,-0.09 -0.989,-0.082 -0.98,-0.102 -0.992,-0.109 -0.989,-0.117 -0.992,-0.141 -0.976,-0.172 -0.992,-0.187 -0.989,-0.211 -0.992,-0.231 -0.988,-0.23 -0.981,-0.231 -0.992,-0.25 -0.988,-0.258 -0.988,-0.269 -0.981,-0.274 -0.992,-0.289 -0.988,-0.269 -0.993,-0.27 -0.988,-0.242 -0.98,-0.207 -0.989,-0.191 -0.992,-0.18 -0.988,-0.172 -0.981,-0.18 -0.992,-0.207 -0.988,-0.242 -0.988,-0.289 -0.992,-0.332 -0.981,-0.367 -0.988,-0.402 -0.992,-0.387 -0.989,-0.371 -0.98,-0.321 -0.988,-0.261 -0.993,-0.207 -0.988,-0.16 -0.992,-0.141 -0.981,-0.109 -0.988,-0.102 -0.988,-0.059 -0.992,-0.043 -0.981,0.012 -0.988,0.059 -0.992,0.109 -0.989,0.152 -0.992,0.192 -0.976,0.207 -0.992,0.242 -0.989,0.258 -0.992,0.301 -0.98,0.359 -0.989,0.441 -0.992,0.532 -0.988,0.617 -0.988,0.699 -0.981,0.75 -0.992,0.762 -0.988,0.75 -0.993,0.699 -0.976,0.66 -0.992,0.59 -0.989,0.531 -0.992,0.461 -0.988,0.41 -0.981,0.36 -0.992,0.308 -0.988,0.262 -0.988,0.207 z" /><path
                   id="path146"
                   style="fill:#440154;fill-opacity:1;fill-rule:nonzero;stroke:none"
                   d="m 227.699,30.73 1.051,0.11 1.051,0.16 1.058,0.199 1.051,0.25 1.059,0.301 1.051,0.371 1.058,0.41 1.051,0.457 1.051,0.5 1.058,0.532 1.051,0.539 1.063,0.562 1.046,0.57 1.063,0.579 1.051,0.582 1.047,0.578 1.062,0.558 1.051,0.543 1.058,0.508 1.051,0.449 1.059,0.403 1.051,0.328 1.05,0.269 1.059,0.192 1.051,0.129 1.058,0.082 1.051,0.039 1.059,0.011 1.051,-0.011 1.05,-0.02 1.059,-0.051 1.051,-0.058 1.058,-0.102 1.051,-0.14 1.063,-0.161 1.046,-0.187 1.063,-0.223 1.051,-0.226 1.047,-0.25 1.062,-0.262 1.051,-0.27 1.058,-0.281 1.051,-0.277 1.059,-0.281 1.051,-0.25 1.05,-0.231 1.059,-0.219 1.051,-0.203 1.058,-0.207 1.051,-0.23 1.059,-0.25 1.051,-0.27 1.05,-0.281 1.059,-0.289 1.051,-0.289 1.058,-0.262 1.051,-0.23 1.063,-0.2 1.046,-0.16 1.051,-0.14 1.063,-0.11 1.047,-0.121 1.062,-0.109 1.051,-0.129 1.058,-0.141 1.051,-0.148 1.047,-0.172 1.063,-0.16 1.05,-0.149 1.059,-0.14 1.051,-0.121 1.058,-0.102 2.102,-0.18 1.059,-0.078 1.05,-0.082 1.059,-0.078 1.051,-0.082 1.058,-0.066 2.102,-0.141 1.058,-0.062 1.051,-0.071 1.063,-0.066 1.047,-0.07 1.062,-0.082 1.051,-0.071 1.047,-0.078 1.062,-0.07 1.047,-0.063 1.063,-0.058 1.05,-0.039 1.059,-0.039 1.051,-0.024 1.051,-0.008 1.058,-0.011 h 1.051 l 1.059,0.011 1.05,-0.011 h 1.059 l 1.051,-0.008 1.05,-0.02 1.059,-0.019 1.051,-0.024 1.058,-0.027 1.051,-0.02 1.063,-0.031 1.047,-0.031 1.05,-0.027 1.063,-0.032 1.047,-0.039 1.062,-0.031 1.047,-0.031 1.063,-0.028 1.05,-0.019 1.047,-0.031 1.063,-0.032 1.051,-0.031 1.058,-0.039 1.051,-0.027 1.059,-0.032 1.05,-0.031 1.051,-0.019 1.059,-0.008 H 360 v -0.391 h -1.57 l -1.059,-0.011 -1.051,-0.02 -1.05,-0.031 -1.059,-0.028 -1.051,-0.031 -1.058,-0.039 -1.051,-0.031 -1.063,-0.031 -1.047,-0.028 -1.05,-0.019 -1.063,-0.032 -1.047,-0.031 -1.062,-0.027 -1.047,-0.043 -1.063,-0.027 -1.05,-0.032 -1.047,-0.031 -1.063,-0.027 -1.051,-0.024 -1.058,-0.019 -1.051,-0.028 -1.059,-0.019 -1.05,-0.012 -1.051,-0.019 h -5.277 l -1.051,-0.012 -1.051,-0.027 -1.059,-0.032 -1.05,-0.05 -1.063,-0.059 -1.047,-0.063 -1.062,-0.07 -1.047,-0.066 -1.051,-0.082 -1.062,-0.078 -1.047,-0.071 -1.063,-0.07 -1.051,-0.07 -1.058,-0.063 -1.051,-0.066 -1.051,-0.071 -1.058,-0.07 -1.051,-0.082 -1.059,-0.078 -1.05,-0.082 -1.059,-0.078 -1.051,-0.082 -1.051,-0.09 -1.058,-0.109 -1.051,-0.122 -1.059,-0.136 -1.05,-0.153 -1.063,-0.16 -1.047,-0.16 -1.051,-0.16 -1.058,-0.141 -1.051,-0.129 -1.062,-0.109 -1.047,-0.109 -1.063,-0.121 -1.051,-0.141 -1.046,-0.16 -1.063,-0.199 -1.051,-0.231 -1.058,-0.258 -1.051,-0.281 -1.059,-0.289 -1.05,-0.289 -1.051,-0.274 -1.059,-0.25 -1.051,-0.218 -1.058,-0.219 -1.051,-0.199 -1.059,-0.223 -1.05,-0.23 -1.051,-0.25 -1.059,-0.27 -1.051,-0.277 -1.058,-0.282 -1.051,-0.281 -1.062,-0.258 -1.047,-0.25 -1.051,-0.23 -1.063,-0.211 -1.046,-0.191 -1.063,-0.168 -1.051,-0.129 -1.058,-0.102 -1.051,-0.07 -1.059,-0.039 -1.05,-0.031 -1.051,-0.008 -1.059,0.008 -1.051,0.039 -1.058,0.082 -1.051,0.129 -1.059,0.199 -1.05,0.261 -1.051,0.329 -1.059,0.402 -1.051,0.461 -1.058,0.5 -1.051,0.539 -1.062,0.559 -1.047,0.582 -1.051,0.578 -1.063,0.582 -1.046,0.566 -1.063,0.563 -1.051,0.55 -1.058,0.52 -1.051,0.5 -1.051,0.461 -1.058,0.418 -1.051,0.359 -1.059,0.313 -1.051,0.25 -1.058,0.199 -1.051,0.148 -1.051,0.121 z" /><g
                   id="g150"
                   transform="scale(1,-1)"><path
                     id="path148"
                     style="fill:none;stroke:#000000;stroke-width:1.07;stroke-linecap:butt;stroke-linejoin:round;stroke-miterlimit:10;stroke-dasharray:4.27, 4.27;stroke-dashoffset:0;stroke-opacity:1"
                     d="M 216.961,-472.09 V -5.48" /></g><g
                   id="g154"
                   transform="scale(1,-1)"><path
                     id="path152"
                     style="fill:none;stroke:#333333;stroke-width:1.07;stroke-linecap:round;stroke-linejoin:round;stroke-miterlimit:10;stroke-dasharray:none;stroke-opacity:1"
                     d="M 79.391,-5.48 H 354.52 V -472.089 H 79.391 Z" /></g></g></g></g></g></g></g><g
       id="g162"><g
         transform="scale(1,-1)"
         id="g164"><path
           id="path166"
           style="fill:none;stroke:#333333;stroke-width:1.07;stroke-linecap:butt;stroke-linejoin:round;stroke-miterlimit:10;stroke-dasharray:none;stroke-opacity:1"
           d="m 91.898,-474.828 v 2.738" /></g><g
         transform="scale(1,-1)"
         id="g168"><path
           id="path170"
           style="fill:none;stroke:#333333;stroke-width:1.07;stroke-linecap:butt;stroke-linejoin:round;stroke-miterlimit:10;stroke-dasharray:none;stroke-opacity:1"
           d="m 154.43,-474.828 v 2.738" /></g><g
         transform="scale(1,-1)"
         id="g172"><path
           id="path174"
           style="fill:none;stroke:#333333;stroke-width:1.07;stroke-linecap:butt;stroke-linejoin:round;stroke-miterlimit:10;stroke-dasharray:none;stroke-opacity:1"
           d="m 216.961,-474.828 v 2.738" /></g><g
         transform="scale(1,-1)"
         id="g176"><path
           id="path178"
           style="fill:none;stroke:#333333;stroke-width:1.07;stroke-linecap:butt;stroke-linejoin:round;stroke-miterlimit:10;stroke-dasharray:none;stroke-opacity:1"
           d="m 279.488,-474.828 v 2.738" /></g><g
         transform="scale(1,-1)"
         id="g180"><path
           id="path182"
           style="fill:none;stroke:#333333;stroke-width:1.07;stroke-linecap:butt;stroke-linejoin:round;stroke-miterlimit:10;stroke-dasharray:none;stroke-opacity:1"
           d="m 342.012,-474.828 v 2.738" /></g><text
         id="text186"
         style="font-variant:normal;font-weight:normal;font-size:9px;font-family:Helvetica;-inkscape-font-specification:Helvetica;writing-mode:lr-tb;fill:#4d4d4d;fill-opacity:1;fill-rule:nonzero;stroke:none"
         transform="translate(86.769998,483.48)"><tspan
           id="tspan184"
           y="0"
           x="0"></tspan></text><text
         id="text190"
         style="font-variant:normal;font-weight:normal;font-size:9px;font-family:Helvetica;-inkscape-font-specification:Helvetica;writing-mode:lr-tb;fill:#4d4d4d;fill-opacity:1;fill-rule:nonzero;stroke:none"
         transform="translate(92.016998,483.48)"><tspan
           id="tspan188"
           y="0"
           x="0">2</tspan></text><text
         id="text194"
         style="font-variant:normal;font-weight:normal;font-size:9px;font-family:Helvetica;-inkscape-font-specification:Helvetica;writing-mode:lr-tb;fill:#4d4d4d;fill-opacity:1;fill-rule:nonzero;stroke:none"
         transform="translate(149.293,483.48)"><tspan
           id="tspan192"
           y="0"
           x="0"></tspan></text><text
         id="text220"
         style="font-variant:normal;font-weight:normal;font-size:9px;font-family:Helvetica;-inkscape-font-specification:Helvetica;writing-mode:lr-tb;fill:#4d4d4d;fill-opacity:1;fill-rule:nonzero;stroke:none"
         transform="translate(154.54,483.48)"><tspan
           id="tspan196"
           sodipodi:role="line"
           y="0"
           x="0 59.903999 122.43999 184.972">1012</tspan><tspan
           id="tspan198"
           sodipodi:role="line"
           y="-33.159996"
           x="-123.50001 -119.00001 -113.99601 -108.992 -106.49901 -103.59201 -98.588005 -96.590004 -94.097008 -91.604004 -86.600006">central ILD</tspan><tspan
           id="tspan200"
           sodipodi:role="line"
           y="-74.82"
           x="-125.59 -121.09 -116.08601 -111.08201 -108.589 -103.58501 -101.092 -94.594002 -88.096008 -82.606003">south CUTI</tspan><tspan
           id="tspan202"
           sodipodi:role="line"
           y="-116.48"
           x="-130.49001 -125.99 -120.986 -115.982 -113.489 -110.582 -105.578 -101.078 -94.580002 -88.082001 -82.592003">centralCUTI</tspan><tspan
           id="tspan204"
           sodipodi:role="line"
           y="-158.14"
           x="-131.10001 -126.6 -121.596 -116.592 -114.099 -109.095 -106.60201 -100.608 -94.613998 -88.116005 -82.625999">south BEUTI</tspan><tspan
           id="tspan206"
           sodipodi:role="line"
           y="-199.8"
           x="-136 -131.5 -126.49599 -121.492 -118.999 -116.092 -111.088 -109.09 -106.597 -100.603 -94.608994 -88.111 -82.620995">central BEUTI</tspan><tspan
           id="tspan208"
           sodipodi:role="line"
           y="-241.46001"
           x="-116.59999 -112.09999 -107.09599 -102.092 -99.598991 -94.594994 -92.10199 -86.107994">south BV</tspan><tspan
           id="tspan210"
           sodipodi:role="line"
           y="-283.13"
           x="-121.49999 -116.99999 -111.99599 -106.99199 -104.49899 -101.59199 -96.58799 -94.589989 -92.096992 -86.102989">central BV</tspan><tspan
           id="tspan212"
           sodipodi:role="line"
           y="-324.79001"
           x="-123.09999 -118.59999 -113.59599 -108.59199 -106.09899 -101.09499 -98.60199 -92.607994 -86.613991">south SSH</tspan><tspan
           id="tspan214"
           sodipodi:role="line"
           y="-366.45001"
           x="-127.99998 -123.49998 -118.49599 -113.49199 -110.99899 -108.09199 -103.08799 -101.08999 -98.596985 -92.602989 -86.608986">central SSH</tspan><tspan
           id="tspan216"
           sodipodi:role="line"
           y="-408.10999"
           x="-122.09998 -117.59998 -112.59599 -107.59198 -105.09898 -100.09499 -97.601982 -91.607986 -85.613983">south SST</tspan><tspan
           id="tspan218"
           sodipodi:role="line"
           y="-449.76999"
           x="-126.99998 -122.49998 -117.49598 -112.49198 -109.99898 -107.09198 -102.08798 -100.08998 -97.596977 -91.602982 -85.608978">central SST</tspan></text><g
         transform="scale(1,-1)"
         id="g222"><path
           id="path224"
           style="fill:none;stroke:#333333;stroke-width:1.07;stroke-linecap:butt;stroke-linejoin:round;stroke-miterlimit:10;stroke-dasharray:none;stroke-opacity:1"
           d="m 76.648,-447.09 h 2.743" /></g><g
         transform="scale(1,-1)"
         id="g226"><path
           id="path228"
           style="fill:none;stroke:#333333;stroke-width:1.07;stroke-linecap:butt;stroke-linejoin:round;stroke-miterlimit:10;stroke-dasharray:none;stroke-opacity:1"
           d="m 76.648,-405.43 h 2.743" /></g><g
         transform="scale(1,-1)"
         id="g230"><path
           id="path232"
           style="fill:none;stroke:#333333;stroke-width:1.07;stroke-linecap:butt;stroke-linejoin:round;stroke-miterlimit:10;stroke-dasharray:none;stroke-opacity:1"
           d="m 76.648,-363.77 h 2.743" /></g><g
         transform="scale(1,-1)"
         id="g234"><path
           id="path236"
           style="fill:none;stroke:#333333;stroke-width:1.07;stroke-linecap:butt;stroke-linejoin:round;stroke-miterlimit:10;stroke-dasharray:none;stroke-opacity:1"
           d="m 76.648,-322.109 h 2.743" /></g><g
         transform="scale(1,-1)"
         id="g238"><path
           id="path240"
           style="fill:none;stroke:#333333;stroke-width:1.07;stroke-linecap:butt;stroke-linejoin:round;stroke-miterlimit:10;stroke-dasharray:none;stroke-opacity:1"
           d="m 76.648,-280.449 h 2.743" /></g><g
         transform="scale(1,-1)"
         id="g242"><path
           id="path244"
           style="fill:none;stroke:#333333;stroke-width:1.07;stroke-linecap:butt;stroke-linejoin:round;stroke-miterlimit:10;stroke-dasharray:none;stroke-opacity:1"
           d="m 76.648,-238.781 h 2.743" /></g><g
         transform="scale(1,-1)"
         id="g246"><path
           id="path248"
           style="fill:none;stroke:#333333;stroke-width:1.07;stroke-linecap:butt;stroke-linejoin:round;stroke-miterlimit:10;stroke-dasharray:none;stroke-opacity:1"
           d="m 76.648,-197.121 h 2.743" /></g><g
         transform="scale(1,-1)"
         id="g250"><path
           id="path252"
           style="fill:none;stroke:#333333;stroke-width:1.07;stroke-linecap:butt;stroke-linejoin:round;stroke-miterlimit:10;stroke-dasharray:none;stroke-opacity:1"
           d="m 76.648,-155.461 h 2.743" /></g><g
         transform="scale(1,-1)"
         id="g254"><path
           id="path256"
           style="fill:none;stroke:#333333;stroke-width:1.07;stroke-linecap:butt;stroke-linejoin:round;stroke-miterlimit:10;stroke-dasharray:none;stroke-opacity:1"
           d="m 76.648,-113.801 h 2.743" /></g><g
         transform="scale(1,-1)"
         id="g258"><path
           id="path260"
           style="fill:none;stroke:#333333;stroke-width:1.07;stroke-linecap:butt;stroke-linejoin:round;stroke-miterlimit:10;stroke-dasharray:none;stroke-opacity:1"
           d="m 76.648,-72.141 h 2.743" /></g><g
         transform="scale(1,-1)"
         id="g262"><path
           id="path264"
           style="fill:none;stroke:#333333;stroke-width:1.07;stroke-linecap:butt;stroke-linejoin:round;stroke-miterlimit:10;stroke-dasharray:none;stroke-opacity:1"
           d="m 76.648,-30.48 h 2.743" /></g><text
         id="text268"
         style="font-variant:normal;font-weight:normal;font-size:11px;font-family:Helvetica;-inkscape-font-specification:Helvetica;writing-mode:lr-tb;fill:#000000;fill-opacity:1;fill-rule:nonzero;stroke:none"
         transform="translate(197.38999,496.1)"><tspan
           id="tspan266"
           sodipodi:role="line"
           y="0"
           x="0 6.1160002 12.232 18.348 24.464001 26.906 33.021999">Loading</tspan></text><text
         id="text272"
         style="font-variant:normal;font-weight:normal;font-size:11px;font-family:Helvetica;-inkscape-font-specification:Helvetica;writing-mode:lr-tb;fill:#000000;fill-opacity:1;fill-rule:nonzero;stroke:none"
         transform="rotate(-90,140.79,127.41)"><tspan
           id="tspan270"
           sodipodi:role="line"
           y="0"
           x="0 6.71 9.1520004 18.315001 24.431 27.478001 34.804001 40.919998 44.748001 47.189999 53.306">Time Series</tspan></text></g></g></svg>
