<?xml version="1.0" encoding="UTF-8" standalone="no"?>
<svg
   xmlns:dc="http://purl.org/dc/elements/1.1/"
   xmlns:cc="http://creativecommons.org/ns#"
   xmlns:rdf="http://www.w3.org/1999/02/22-rdf-syntax-ns#"
   xmlns:svg="http://www.w3.org/2000/svg"
   xmlns="http://www.w3.org/2000/svg"
   xmlns:sodipodi="http://sodipodi.sourceforge.net/DTD/sodipodi-0.dtd"
   xmlns:inkscape="http://www.inkscape.org/namespaces/inkscape"
   inkscape:version="1.0 (4035a4f, 2020-05-01)"
   sodipodi:docname="Fig5.svg"
   viewBox="0 0 480 384"
   height="384"
   width="480"
   xml:space="preserve"
   id="svg10"
   version="1.1"><metadata
     id="metadata16"><rdf:RDF><cc:Work
         rdf:about=""><dc:format>image/svg+xml</dc:format><dc:type
           rdf:resource="http://purl.org/dc/dcmitype/StillImage" /><dc:title></dc:title></cc:Work></rdf:RDF></metadata><defs
     id="defs14"><clipPath
       id="clipPath34"
       clipPathUnits="userSpaceOnUse"><path
         id="path32"
         d="M 33.73,5.48 H 354.519 V 256.089 H 33.73 Z" /></clipPath><clipPath
       id="clipPath42"
       clipPathUnits="userSpaceOnUse"><path
         id="path40"
         d="M 0,0 H 360 V 288 H 0 Z" /></clipPath></defs><sodipodi:namedview
     inkscape:current-layer="g114"
     inkscape:window-maximized="0"
     inkscape:window-y="23"
     inkscape:window-x="0"
     inkscape:cy="110.8604"
     inkscape:cx="240"
     inkscape:zoom="2.19375"
     showgrid="false"
     id="namedview12"
     inkscape:window-height="743"
     inkscape:window-width="1140"
     inkscape:pageshadow="2"
     inkscape:pageopacity="0"
     guidetolerance="10"
     gridtolerance="10"
     objecttolerance="10"
     borderopacity="1"
     bordercolor="#666666"
     pagecolor="#ffffff" /><g
     transform="matrix(1.3333333,0,0,1.3333333,0,9.6e-6)"
     inkscape:label="Figure_4a"
     inkscape:groupmode="layer"
     id="g18"><g
       id="g20"><path
         id="path22"
         style="fill:#ffffff;fill-opacity:1;fill-rule:nonzero;stroke:none"
         d="M 0,0 H 360 V 288 H 0 Z" /><g
         transform="scale(1,-1)"
         id="g24"><path
           id="path26"
           style="fill:none;stroke:#ffffff;stroke-width:1.07;stroke-linecap:round;stroke-linejoin:round;stroke-miterlimit:10;stroke-dasharray:none;stroke-opacity:1"
           d="M 0,0 H 360 V -288 H 0 Z" /></g></g><g
       id="g28"><g
         clip-path="url(#clipPath34)"
         id="g30"><g
           id="g36"><g
             id="g38" /><g
             id="g112"><g
               id="g110"
               clip-path="url(#clipPath42)"><g
                 id="g108"><path
                   id="path44"
                   style="fill:#ffffff;fill-opacity:1;fill-rule:nonzero;stroke:none"
                   d="M 33.73,5.48 H 354.519 V 256.089 H 33.73 Z" /><g
                   id="g48"
                   transform="scale(1,-1)"><path
                     id="path46"
                     style="fill:none;stroke:#ebebeb;stroke-width:0.53;stroke-linecap:butt;stroke-linejoin:round;stroke-miterlimit:10;stroke-dasharray:none;stroke-opacity:1"
                     d="M 33.73,-219.352 H 354.52" /></g><g
                   id="g52"
                   transform="scale(1,-1)"><path
                     id="path50"
                     style="fill:none;stroke:#ebebeb;stroke-width:0.53;stroke-linecap:butt;stroke-linejoin:round;stroke-miterlimit:10;stroke-dasharray:none;stroke-opacity:1"
                     d="M 33.73,-129.809 H 354.52" /></g><g
                   id="g56"
                   transform="scale(1,-1)"><path
                     id="path54"
                     style="fill:none;stroke:#ebebeb;stroke-width:0.53;stroke-linecap:butt;stroke-linejoin:round;stroke-miterlimit:10;stroke-dasharray:none;stroke-opacity:1"
                     d="M 33.73,-40.27 H 354.52" /></g><g
                   id="g60"
                   transform="scale(1,-1)"><path
                     id="path58"
                     style="fill:none;stroke:#ebebeb;stroke-width:0.53;stroke-linecap:butt;stroke-linejoin:round;stroke-miterlimit:10;stroke-dasharray:none;stroke-opacity:1"
                     d="M 48.309,-256.09 V -5.48" /></g><g
                   id="g64"
                   transform="scale(1,-1)"><path
                     id="path62"
                     style="fill:none;stroke:#ebebeb;stroke-width:0.53;stroke-linecap:butt;stroke-linejoin:round;stroke-miterlimit:10;stroke-dasharray:none;stroke-opacity:1"
                     d="M 135.359,-256.09 V -5.48" /></g><g
                   id="g68"
                   transform="scale(1,-1)"><path
                     id="path66"
                     style="fill:none;stroke:#ebebeb;stroke-width:0.53;stroke-linecap:butt;stroke-linejoin:round;stroke-miterlimit:10;stroke-dasharray:none;stroke-opacity:1"
                     d="M 222.422,-256.09 V -5.48" /></g><g
                   id="g72"
                   transform="scale(1,-1)"><path
                     id="path70"
                     style="fill:none;stroke:#ebebeb;stroke-width:0.53;stroke-linecap:butt;stroke-linejoin:round;stroke-miterlimit:10;stroke-dasharray:none;stroke-opacity:1"
                     d="M 309.469,-256.09 V -5.48" /></g><g
                   id="g76"
                   transform="scale(1,-1)"><path
                     id="path74"
                     style="fill:none;stroke:#ebebeb;stroke-width:1.07;stroke-linecap:butt;stroke-linejoin:round;stroke-miterlimit:10;stroke-dasharray:none;stroke-opacity:1"
                     d="M 33.73,-174.578 H 354.52" /></g><g
                   id="g80"
                   transform="scale(1,-1)"><path
                     id="path78"
                     style="fill:none;stroke:#ebebeb;stroke-width:1.07;stroke-linecap:butt;stroke-linejoin:round;stroke-miterlimit:10;stroke-dasharray:none;stroke-opacity:1"
                     d="M 33.73,-85.039 H 354.52" /></g><g
                   id="g84"
                   transform="scale(1,-1)"><path
                     id="path82"
                     style="fill:none;stroke:#ebebeb;stroke-width:1.07;stroke-linecap:butt;stroke-linejoin:round;stroke-miterlimit:10;stroke-dasharray:none;stroke-opacity:1"
                     d="M 91.84,-256.09 V -5.48" /></g><g
                   id="g88"
                   transform="scale(1,-1)"><path
                     id="path86"
                     style="fill:none;stroke:#ebebeb;stroke-width:1.07;stroke-linecap:butt;stroke-linejoin:round;stroke-miterlimit:10;stroke-dasharray:none;stroke-opacity:1"
                     d="M 178.891,-256.09 V -5.48" /></g><g
                   id="g92"
                   transform="scale(1,-1)"><path
                     id="path90"
                     style="fill:none;stroke:#ebebeb;stroke-width:1.07;stroke-linecap:butt;stroke-linejoin:round;stroke-miterlimit:10;stroke-dasharray:none;stroke-opacity:1"
                     d="M 265.941,-256.09 V -5.48" /></g><g
                   id="g96"
                   transform="scale(1,-1)"><path
                     id="path94"
                     style="fill:none;stroke:#ebebeb;stroke-width:1.07;stroke-linecap:butt;stroke-linejoin:round;stroke-miterlimit:10;stroke-dasharray:none;stroke-opacity:1"
                     d="M 353,-256.09 V -5.48" /></g><path
                   id="path98"
                   style="fill:#00204c;fill-opacity:0.4;fill-rule:nonzero;stroke:none"
                   d="m 48.309,53.539 4.351,29.582 4.36,0.117 4.351,22.383 4.348,4.289 4.351,-0.789 4.36,0.117 4.351,-6.797 4.348,-17.589 4.351,10.918 4.36,6.261 4.351,-2.261 4.348,-1.418 4.352,9.136 4.359,-11.898 4.352,-10.961 4.347,-5.57 4.36,-32.758 4.351,20.98 4.352,-5.39 4.347,-27.039 4.36,5.418 4.351,14.242 4.352,-1.383 4.348,-0.367 4.359,17.828 4.351,-6.539 4.348,-32.832 4.352,19.23 4.359,-27.187 4.352,22.179 4.347,-8.531 4.364,19.25 4.347,26.488 4.352,-18.957 4.347,-35.211 4.364,26.989 4.347,-30.668 4.352,18.75 4.348,27.109 4.363,5.828 4.348,-22.457 4.351,16.188 4.348,-11.129 4.359,2.621 4.352,13.75 4.351,-3.281 4.36,5.558 4.347,13.34 4.352,-8.25 4.351,-8.316 4.36,-20.512 4.347,3.762 4.352,19.558 4.352,-5.941 4.359,23.062 4.348,0.731 4.351,-5.274 4.36,-5.707 4.351,-10.992 4.348,-10.109 4.351,0.219 4.36,-10.618 4.351,-35.82 4.348,6.688 4.351,-5.258 4.36,26.648 4.351,5.52 V 83.18 l -4.351,-0.891 -4.36,-8.059 -4.351,2.282 -4.348,-3.063 -4.351,12.223 -4.36,6.019 -4.351,-0.453 -4.348,8.231 -4.351,14.64 -4.36,15.602 -4.351,18.25 -4.348,-0.43 -4.359,-50.011 -4.352,6.339 -4.352,-17.55 -4.347,-2.239 -4.36,15.75 -4.351,10.981 -4.352,29.308 -4.347,-36.757 -4.36,-3.454 -4.351,3.532 -4.352,-12.641 -4.359,-3.559 -4.348,11.879 -4.351,-14.718 -4.348,18.078 -4.363,14.953 -4.348,-23.524 -4.352,-12.097 -4.347,21.48 -4.364,-18.429 -4.347,26.058 -4.352,33.129 -4.347,-26.578 -4.364,-29.449 -4.347,20.629 -4.352,-19.262 -4.359,15.562 -4.352,-6.793 -4.348,25.692 -4.351,3.84 -4.359,-7.899 -4.348,-5.429 -4.352,-10.473 -4.351,2.43 -4.36,23.293 -4.347,-1.192 -4.352,12.129 -4.351,-23.398 -4.36,32.031 -4.347,14.566 -4.352,24.614 -4.359,40.019 -4.352,-26.199 -4.348,-1.024 -4.351,7.832 -4.36,-17.57 -4.351,-17.48 -4.348,41 -4.351,28.14 -4.36,1.629 -4.351,-0.871 -4.348,-18.59 -4.351,-59.539 -4.36,-5.508 -4.351,-13.769 z" /><g
                   id="g102"
                   transform="scale(1,-1)"><path
                     id="path100"
                     style="fill:none;stroke:#00204c;stroke-width:1.07;stroke-linecap:butt;stroke-linejoin:round;stroke-miterlimit:10;stroke-dasharray:none;stroke-opacity:1"
                     d="m 48.309,-97.051 4.351,-15.89 4.36,-1.52 4.351,-37.777 4.348,-9.742 4.351,-0.192 4.36,1.082 4.351,16.801 4.348,26.988 4.351,-14.129 4.36,-11.879 4.351,4.547 4.348,1.364 4.352,-17.442 4.359,25.238 4.352,15.293 4.347,7.118 4.36,25.781 4.351,-18.121 4.352,7.121 4.347,9.43 4.36,7.871 4.351,-5.813 4.352,-2.68 4.348,-1.097 4.359,-10.02 4.351,2.84 4.348,22.41 4.352,-11.332 4.359,17.653 4.352,-16.391 4.347,11.68 4.364,-18.539 4.347,-21.274 4.352,21.031 4.347,23.629 4.364,-18.097 4.347,20.82 4.352,-12.41 4.348,-19.571 4.363,3.829 4.348,15.781 4.351,-12.192 4.348,8.911 4.359,-2.688 4.352,-10 4.351,2.641 4.36,-3.422 4.347,-20.719 4.352,16.078 4.351,7.321 4.36,13.871 4.347,-2.321 4.352,-14.058 4.352,4.789 4.359,-30.731 4.348,-1.242 4.351,11.703 4.36,8.93 4.351,9.578 4.348,6.91 4.351,-0.558 4.36,6.359 4.351,22.75 4.348,-5.68 4.351,4.43 4.36,-16.719 4.351,-2.269" /></g><g
                   id="g106"
                   transform="scale(1,-1)"><path
                     id="path104"
                     style="fill:none;stroke:#333333;stroke-width:1.07;stroke-linecap:round;stroke-linejoin:round;stroke-miterlimit:10;stroke-dasharray:none;stroke-opacity:1"
                     d="M 33.73,-5.48 H 354.519 V -256.089 H 33.73 Z" /></g></g></g></g></g></g></g><g
       id="g114"><g
         transform="scale(1,-1)"
         id="g116"><path
           id="path118"
           style="fill:none;stroke:#333333;stroke-width:1.07;stroke-linecap:butt;stroke-linejoin:round;stroke-miterlimit:10;stroke-dasharray:none;stroke-opacity:1"
           d="m 91.84,-258.828 v 2.738" /></g><g
         transform="scale(1,-1)"
         id="g120"><path
           id="path122"
           style="fill:none;stroke:#333333;stroke-width:1.07;stroke-linecap:butt;stroke-linejoin:round;stroke-miterlimit:10;stroke-dasharray:none;stroke-opacity:1"
           d="m 178.891,-258.828 v 2.738" /></g><g
         transform="scale(1,-1)"
         id="g124"><path
           id="path126"
           style="fill:none;stroke:#333333;stroke-width:1.07;stroke-linecap:butt;stroke-linejoin:round;stroke-miterlimit:10;stroke-dasharray:none;stroke-opacity:1"
           d="m 265.941,-258.828 v 2.738" /></g><g
         transform="scale(1,-1)"
         id="g128"><path
           id="path130"
           style="fill:none;stroke:#333333;stroke-width:1.07;stroke-linecap:butt;stroke-linejoin:round;stroke-miterlimit:10;stroke-dasharray:none;stroke-opacity:1"
           d="m 353,-258.828 v 2.738" /></g><text
         id="text134"
         style="font-variant:normal;font-weight:normal;font-size:9px;font-family:Helvetica;-inkscape-font-specification:Helvetica;writing-mode:lr-tb;fill:#4d4d4d;fill-opacity:1;fill-rule:nonzero;stroke:none"
         transform="translate(81.829998,267.48)"><tspan
           id="tspan132"
           sodipodi:role="line"
           y="0"
           x="0 5.0040002 10.008 15.012 87.047997 92.052002 97.056 102.06 174.11 179.114 184.11801 189.12201 252.158 257.16202 262.16602 267.17001">1960198020002020</tspan></text><text
         id="text138"
         style="font-variant:normal;font-weight:normal;font-size:9px;font-family:Helvetica;-inkscape-font-specification:Helvetica;writing-mode:lr-tb;fill:#4d4d4d;fill-opacity:1;fill-rule:nonzero;stroke:none"
         transform="translate(18.54,177.81)"><tspan
           id="tspan136"
           y="0"
           x="0">−</tspan></text><text
         id="text144"
         style="font-variant:normal;font-weight:normal;font-size:9px;font-family:Helvetica;-inkscape-font-specification:Helvetica;writing-mode:lr-tb;fill:#4d4d4d;fill-opacity:1;fill-rule:nonzero;stroke:none"
         transform="translate(23.787,177.81)"><tspan
           id="tspan140"
           y="0"
           x="0">5</tspan><tspan
           id="tspan142"
           y="-89.540001"
           x="0.002997">0</tspan></text><g
         transform="scale(1,-1)"
         id="g146"><path
           id="path148"
           style="fill:none;stroke:#333333;stroke-width:1.07;stroke-linecap:butt;stroke-linejoin:round;stroke-miterlimit:10;stroke-dasharray:none;stroke-opacity:1"
           d="M 30.988,-174.578 H 33.73" /></g><g
         transform="scale(1,-1)"
         id="g150"><path
           id="path152"
           style="fill:none;stroke:#333333;stroke-width:1.07;stroke-linecap:butt;stroke-linejoin:round;stroke-miterlimit:10;stroke-dasharray:none;stroke-opacity:1"
           d="M 30.988,-85.039 H 33.73" /></g><text
         id="text156"
         style="font-variant:normal;font-weight:normal;font-size:11px;font-family:Helvetica;-inkscape-font-specification:Helvetica;writing-mode:lr-tb;fill:#000000;fill-opacity:1;fill-rule:nonzero;stroke:none"
         transform="translate(181.89999,280.1)"><tspan
           id="tspan154"
           sodipodi:role="line"
           y="0"
           x="0 6.71 9.1520004 18.315001">Time</tspan></text><text
         id="text160"
         style="font-variant:normal;font-weight:normal;font-size:11px;font-family:Helvetica;-inkscape-font-specification:Helvetica;writing-mode:lr-tb;fill:#000000;fill-opacity:1;fill-rule:nonzero;stroke:none"
         transform="rotate(-90,86.205001,72.825001)"><tspan
           id="tspan158"
           sodipodi:role="line"
           y="0"
           x="0 5.3899999 9.0530005 15.169 21.285 27.400999 30.448 35.673 41.789001 44.230999 50.347">Trend value</tspan></text></g></g></svg>
